STARTFONT 2.3
FONT -FontForge-Righteous-Book-R-Normal--12-120-72-72-P-64-ISO10646-1
SIZE 12 72 72  4
FONTBOUNDINGBOX 16 15 -2 -3
COMMENT "Generated by fontforge, http://fontforge.sourceforge.net"
COMMENT "Copyright (c) 2011 by Brian J. Bonislawsky DBA Astigmatic (AOETI) (astigma@astigmatic.com), with ReservedFont Name "Righteous""
STARTPROPERTIES 40
FOUNDRY "FontForge"
FAMILY_NAME "Righteous"
WEIGHT_NAME "Book"
SLANT "R"
SETWIDTH_NAME "Normal"
ADD_STYLE_NAME ""
PIXEL_SIZE 12
POINT_SIZE 120
RESOLUTION_X 72
RESOLUTION_Y 72
SPACING "P"
AVERAGE_WIDTH 64
CHARSET_REGISTRY "ISO10646"
CHARSET_ENCODING "1"
FONTNAME_REGISTRY ""
CHARSET_COLLECTIONS "ISO8859-2 ISO8859-9 ISO8859-4 ISO10646-1"
BITS_PER_PIXEL 4
FONT_NAME "Righteous-Regular"
FACE_NAME "Righteous"
COPYRIGHT "Copyright (c) 2011 by Brian J. Bonislawsky DBA Astigmatic (AOETI) (astigma@astigmatic.com), with ReservedFont Name "Righteous""
FONT_VERSION "1.000"
FONT_ASCENT 10
FONT_DESCENT 2
UNDERLINE_POSITION -2
UNDERLINE_THICKNESS 1
X_HEIGHT 6
CAP_HEIGHT 8
RAW_ASCENT 799
RAW_DESCENT 200
NORM_SPACE 3
RELATIVE_WEIGHT 40
RELATIVE_SETWIDTH 50
SUPERSCRIPT_X 0
SUPERSCRIPT_Y 5
SUPERSCRIPT_SIZE 7
SUBSCRIPT_X 0
SUBSCRIPT_Y 1
SUBSCRIPT_SIZE 7
AVG_LOWERCASE_WIDTH 63
AVG_UPPERCASE_WIDTH 75
ENDPROPERTIES
CHARS 372
STARTCHAR space
ENCODING 32
SWIDTH 279 0
DWIDTH 3 0
BBX 1 1 0 0
BITMAP
00
ENDCHAR
STARTCHAR exclam
ENCODING 33
SWIDTH 274 0
DWIDTH 3 0
BBX 3 10 0 -1
BITMAP
2640
5F90
4F80
3F70
2F70
1F60
0E40
1830
4F90
0510
ENDCHAR
STARTCHAR quotedbl
ENCODING 34
SWIDTH 409 0
DWIDTH 5 0
BBX 5 4 0 5
BITMAP
264620
5F7F30
4F5F20
141400
ENDCHAR
STARTCHAR numbersign
ENCODING 35
SWIDTH 561 0
DWIDTH 7 0
BBX 7 6 0 1
BITMAP
00A98A00
09FDEE30
09F9F800
3CFCF700
4EBDC400
1A394000
ENDCHAR
STARTCHAR dollar
ENCODING 36
SWIDTH 458 0
DWIDTH 6 0
BBX 5 9 0 0
BITMAP
004200
00B500
19ED90
6E7750
4FED70
147AF0
7FFFA0
13C700
00B500
ENDCHAR
STARTCHAR percent
ENCODING 37
SWIDTH 685 0
DWIDTH 8 0
BBX 8 10 0 -1
BITMAP
06710260
5EC90A90
895C4E10
6DBAC700
0897D110
000D9EF5
007C8A7B
01E48A7B
08B03EF5
00000110
ENDCHAR
STARTCHAR ampersand
ENCODING 38
SWIDTH 485 0
DWIDTH 6 0
BBX 6 9 0 0
BITMAP
002500
017D50
1DEEE1
4F1000
1EDC20
2F8710
3F5440
09FFF1
004C00
ENDCHAR
STARTCHAR quotesingle
ENCODING 39
SWIDTH 238 0
DWIDTH 3 0
BBX 3 4 0 5
BITMAP
2620
5F30
4F20
1400
ENDCHAR
STARTCHAR parenleft
ENCODING 40
SWIDTH 351 0
DWIDTH 4 0
BBX 4 12 0 -2
BITMAP
0088
08F5
1EC0
5F70
7F30
8F20
8F30
5F60
2FA0
0BF2
03FA
0023
ENDCHAR
STARTCHAR parenright
ENCODING 41
SWIDTH 351 0
DWIDTH 4 0
BBX 4 12 0 -2
BITMAP
6920
2FB0
09F3
04F8
00FA
00EB
00FB
03F9
07F5
0DD0
7F60
2300
ENDCHAR
STARTCHAR asterisk
ENCODING 42
SWIDTH 589 0
DWIDTH 7 0
BBX 7 7 0 3
BITMAP
005F5000
197F7820
5FFFFF70
04EFE400
07FEF800
09D1CB00
00101000
ENDCHAR
STARTCHAR plus
ENCODING 43
SWIDTH 485 0
DWIDTH 6 0
BBX 6 6 0 1
BITMAP
00A800
01DB10
8FFFF6
48ED83
00DB00
002200
ENDCHAR
STARTCHAR comma
ENCODING 44
SWIDTH 264 0
DWIDTH 3 0
BBX 3 4 0 -2
BITMAP
1820
5F80
0C50
0500
ENDCHAR
STARTCHAR hyphen
ENCODING 45
SWIDTH 528 0
DWIDTH 6 0
BBX 6 3 0 3
BITMAP
011110
4FFFF9
288885
ENDCHAR
STARTCHAR period
ENCODING 46
SWIDTH 263 0
DWIDTH 3 0
BBX 3 3 0 -1
BITMAP
1820
5F80
0510
ENDCHAR
STARTCHAR slash
ENCODING 47
SWIDTH 490 0
DWIDTH 6 0
BBX 6 9 0 0
BITMAP
000263
0009F3
001EB0
006F50
00CE00
03F800
0AF200
1FA000
7F4000
ENDCHAR
STARTCHAR zero
ENCODING 48
SWIDTH 642 0
DWIDTH 8 0
BBX 8 10 0 -1
BITMAP
00376200
08FFFE40
2FC24EC0
6F4009F1
7F2006F3
7F3007F3
5F600BF1
0DE8AFA0
03DFFB10
00010000
ENDCHAR
STARTCHAR one
ENCODING 49
SWIDTH 317 0
DWIDTH 4 0
BBX 3 9 0 0
BITMAP
3660
8FF0
2CF0
0BF0
0BF0
0BF0
0BF0
0BF0
0BF0
ENDCHAR
STARTCHAR two
ENCODING 50
SWIDTH 570 0
DWIDTH 7 0
BBX 7 9 0 0
BITMAP
16664000
2FFFFB00
1444AF40
00017F50
07EFFD10
3FDA8100
7F300000
7FBAAA20
7FFFFF30
ENDCHAR
STARTCHAR three
ENCODING 51
SWIDTH 586 0
DWIDTH 7 0
BBX 7 9 0 0
BITMAP
26664000
6FFFFC00
24449F50
00116F60
05FFFE10
03AADF30
00004F60
4AAADF30
6FFFD600
ENDCHAR
STARTCHAR four
ENCODING 52
SWIDTH 630 0
DWIDTH 8 0
BBX 8 9 0 0
BITMAP
05600000
0DD04820
0FA07F40
2F807F40
4F607F40
6F85AF80
8FFFFFF1
35559F70
00007F40
ENDCHAR
STARTCHAR five
ENCODING 53
SWIDTH 585 0
DWIDTH 7 0
BBX 7 9 0 0
BITMAP
06666620
0FFFFF40
2FA44410
3F943000
5FFFFB00
2666AF60
00002F80
4AAADF50
6FFFE700
ENDCHAR
STARTCHAR six
ENCODING 54
SWIDTH 615 0
DWIDTH 7 0
BBX 7 10 0 -1
BITMAP
00265000
02ED2000
0BF52000
2FFFFC10
6FD58FA0
8F500CD0
7F600DD0
2EE8AF80
04EFFA10
00031000
ENDCHAR
STARTCHAR seven
ENCODING 55
SWIDTH 516 0
DWIDTH 6 0
BBX 7 9 0 0
BITMAP
46666610
BFFFFD00
3447F800
0009F300
000ED000
004F7000
009F2000
00EC0000
05F70000
ENDCHAR
STARTCHAR eight
ENCODING 56
SWIDTH 618 0
DWIDTH 7 0
BBX 7 10 0 -1
BITMAP
00698200
09FEFE20
0FB05F70
0EC38F50
09FFFE10
4FB46FA0
8F200BE0
5FA36EB0
08FFFB20
00132000
ENDCHAR
STARTCHAR nine
ENCODING 57
SWIDTH 616 0
DWIDTH 7 0
BBX 7 9 0 0
BITMAP
00697100
0BFFFE20
5F916FA0
8F200EE0
7F502FD0
2EFBEFA0
03ACDF50
0002EC00
003DE200
ENDCHAR
STARTCHAR colon
ENCODING 58
SWIDTH 276 0
DWIDTH 3 0
BBX 3 6 0 -1
BITMAP
2D60
3F70
0000
1830
4F90
0510
ENDCHAR
STARTCHAR semicolon
ENCODING 59
SWIDTH 276 0
DWIDTH 3 0
BBX 3 7 0 -2
BITMAP
2D60
3F70
0000
1830
4FA0
0B70
0400
ENDCHAR
STARTCHAR less
ENCODING 60
SWIDTH 478 0
DWIDTH 6 0
BBX 5 7 0 1
BITMAP
000B90
00AFA0
0AFA00
6FE100
09FC20
008FD0
000750
ENDCHAR
STARTCHAR equal
ENCODING 61
SWIDTH 539 0
DWIDTH 6 0
BBX 6 5 0 2
BITMAP
144442
4FFFFA
155554
3DDDD9
3BBBB8
ENDCHAR
STARTCHAR greater
ENCODING 62
SWIDTH 478 0
DWIDTH 6 0
BBX 6 7 0 1
BITMAP
1C7000
1DF700
01DF60
004FF2
04EF50
2FE400
084000
ENDCHAR
STARTCHAR question
ENCODING 63
SWIDTH 603 0
DWIDTH 7 0
BBX 7 10 0 -1
BITMAP
36665100
8FFFFE30
24445FB0
00002EB0
003DFF60
00DE9400
01E90000
00730000
03FA0000
00520000
ENDCHAR
STARTCHAR at
ENCODING 64
SWIDTH 629 0
DWIDTH 8 0
BBX 8 8 0 -1
BITMAP
00366100
08EBCE30
3E58BBD0
7AAAE5F2
7B9CFBF1
2E655550
04DE9000
00032000
ENDCHAR
STARTCHAR A
ENCODING 65
SWIDTH 673 0
DWIDTH 8 0
BBX 8 9 0 0
BITMAP
00155100
03EFFE40
1DE66EE1
4F7006F5
5F5004F6
5F9558F6
5FFFFFF6
5F8558F6
5F5004F6
ENDCHAR
STARTCHAR B
ENCODING 66
SWIDTH 666 0
DWIDTH 8 0
BBX 8 9 0 0
BITMAP
16666400
3FFFFFC0
3F9449F6
3F7116F6
3FFFFFD1
3FCAADF3
3F7004F7
3FDAADF3
3FFFFD60
ENDCHAR
STARTCHAR C
ENCODING 67
SWIDTH 640 0
DWIDTH 8 0
BBX 8 10 0 -1
BITMAP
00057610
03DFFFE3
1DF735B0
6F600000
9F100000
9F200000
4FA00020
0BFC8AE2
008EFFB2
00002100
ENDCHAR
STARTCHAR D
ENCODING 68
SWIDTH 653 0
DWIDTH 8 0
BBX 8 9 0 0
BITMAP
16663000
3FFFFB10
3F95AFC0
3F7009F4
3F7004F7
3F7005F6
3F701DF2
3FDBEF70
3FFFC500
ENDCHAR
STARTCHAR E
ENCODING 69
SWIDTH 578 0
DWIDTH 7 0
BBX 7 9 0 0
BITMAP
16666630
3FFFFF80
3F944420
3F711000
3FFFF300
3FCAA200
3F700000
3FDAAA60
3FFFFF80
ENDCHAR
STARTCHAR F
ENCODING 70
SWIDTH 562 0
DWIDTH 7 0
BBX 7 9 0 0
BITMAP
16666640
3FFFFFA0
3F944430
3F711000
3FFFF000
3FCA9000
3F700000
3F700000
3F700000
ENDCHAR
STARTCHAR G
ENCODING 71
SWIDTH 665 0
DWIDTH 8 0
BBX 8 10 0 -1
BITMAP
00057610
03DFFFE3
1DF836B0
6F600000
9F100031
9F2002F7
5FA002F7
0BFC8AF7
009EFFB2
00002100
ENDCHAR
STARTCHAR H
ENCODING 72
SWIDTH 689 0
DWIDTH 8 0
BBX 8 9 0 0
BITMAP
16300163
3F7003F8
3F7003F8
3F7113F8
3FFFFFF8
3FCAABF8
3F7003F8
3F7003F8
3F7003F8
ENDCHAR
STARTCHAR I
ENCODING 73
SWIDTH 270 0
DWIDTH 3 0
BBX 3 9 0 0
BITMAP
1630
3F70
3F70
3F70
3F70
3F70
3F70
3F70
3F70
ENDCHAR
STARTCHAR J
ENCODING 74
SWIDTH 416 0
DWIDTH 5 0
BBX 5 9 0 0
BITMAP
002620
005F50
005F50
005F50
005F50
006F50
00AF30
ACFA00
CE9100
ENDCHAR
STARTCHAR K
ENCODING 75
SWIDTH 625 0
DWIDTH 8 0
BBX 8 9 0 0
BITMAP
16300362
3F702EC0
3F70CE20
3F79F500
3FCFE100
3FFDF900
3FE2BF20
3F803FA0
3F700AF3
ENDCHAR
STARTCHAR L
ENCODING 76
SWIDTH 562 0
DWIDTH 7 0
BBX 7 9 0 0
BITMAP
16300000
3F700000
3F700000
3F700000
3F700000
3F700000
3F700000
3FDAAA70
3FFFFFA0
ENDCHAR
STARTCHAR M
ENCODING 77
SWIDTH 819 0
DWIDTH 10 0
BBX 10 9 0 0
BITMAP
0057237400
0BFFFFFF80
3FA4FE3CF1
4F60EC08F2
4F60EC08F2
4F60EC08F2
4F60EC08F2
4F60EC08F2
4F60EC08F2
ENDCHAR
STARTCHAR N
ENCODING 78
SWIDTH 689 0
DWIDTH 8 0
BBX 8 9 0 0
BITMAP
16400163
3FF203F8
3FFA03F8
3FEF43F8
3F8DD3F8
3F75F9F8
3F70BFF8
3F703FF8
3F7009F8
ENDCHAR
STARTCHAR O
ENCODING 79
SWIDTH 777 0
DWIDTH 9 0
BBX 9 10 0 -1
BITMAP
0005761000
03DFFFF600
1DF735DF40
6F60002EC0
9F10000BE0
9F20000CE0
4FA0005FA0
0BFC8AFE20
008EFFB200
0000210000
ENDCHAR
STARTCHAR P
ENCODING 80
SWIDTH 642 0
DWIDTH 8 0
BBX 8 9 0 0
BITMAP
16665100
3FFFFF60
3F946DF2
3F7004F7
3F7005F6
3FA57EE2
3FFFFE50
3FA54100
3F700000
ENDCHAR
STARTCHAR Q
ENCODING 81
SWIDTH 777 0
DWIDTH 9 0
BBX 9 11 0 -2
BITMAP
0005761000
03DFFFF600
1DF735DF40
6F60002EC0
9F10000BE0
9F20000CE0
4FA0005FA0
0BFC8AFE20
008EFFD200
00002CE200
000003A700
ENDCHAR
STARTCHAR R
ENCODING 82
SWIDTH 651 0
DWIDTH 8 0
BBX 8 9 0 0
BITMAP
16665100
3FFFFF60
3F946DF2
3F7004F7
3F7005F6
3FA57EF2
3FFFFF50
3FA5AF30
3F702FA0
ENDCHAR
STARTCHAR S
ENCODING 83
SWIDTH 610 0
DWIDTH 7 0
BBX 7 9 0 0
BITMAP
01566640
2EFFFFA0
9F644430
AF310000
4FFFFC20
039AAFB0
00000BE0
3AAABFB0
4FFFFB20
ENDCHAR
STARTCHAR T
ENCODING 84
SWIDTH 578 0
DWIDTH 7 0
BBX 7 9 0 0
BITMAP
56666650
DFFFFFC0
448F8430
006F5000
006F5000
006F5000
006F5000
006F5000
006F5000
ENDCHAR
STARTCHAR U
ENCODING 85
SWIDTH 673 0
DWIDTH 8 0
BBX 8 9 0 0
BITMAP
26200262
5F5004F6
5F5004F6
5F5004F6
5F5004F6
5F6004F6
3FA009F4
0AFCCFB0
018EE910
ENDCHAR
STARTCHAR V
ENCODING 86
SWIDTH 602 0
DWIDTH 7 0
BBX 8 9 0 0
BITMAP
66000561
AF300ED0
5F704F90
1FC09F40
0BF1DE00
06F9F900
01FFF400
00BFE000
006F9000
ENDCHAR
STARTCHAR W
ENCODING 87
SWIDTH 819 0
DWIDTH 10 0
BBX 10 10 0 -1
BITMAP
2620650361
4F60EC08F2
4F60EC08F2
4F60EC08F2
4F60EC08F2
4F60EC08F2
4F60EC09F2
1FDAFF9ED0
05EFBCFD40
0001001000
ENDCHAR
STARTCHAR X
ENCODING 88
SWIDTH 608 0
DWIDTH 7 0
BBX 8 9 0 0
BITMAP
56100561
7F904FB0
0CF3DF20
03FEF800
009FE100
00CFF300
07FBFC00
2ED19F60
AF501EE1
ENDCHAR
STARTCHAR Y
ENCODING 89
SWIDTH 620 0
DWIDTH 7 0
BBX 8 9 0 0
BITMAP
46000460
AF1009F1
AF1009F1
9F200AF0
4FB47FB0
09FFFD20
004FA100
002F8000
002F8000
ENDCHAR
STARTCHAR Z
ENCODING 90
SWIDTH 586 0
DWIDTH 7 0
BBX 7 9 0 0
BITMAP
46666640
BFFFFF40
3448FB00
000CF300
005FB000
00DF3000
06FA0000
0DFCAA80
7FFFFFC0
ENDCHAR
STARTCHAR bracketleft
ENCODING 91
SWIDTH 380 0
DWIDTH 5 0
BBX 5 12 0 -2
BITMAP
299910
4FFF20
4F7100
4F7000
4F7000
4F7000
4F7000
4F7000
4F7000
4FB710
4FFF20
133300
ENDCHAR
STARTCHAR backslash
ENCODING 92
SWIDTH 490 0
DWIDTH 6 0
BBX 6 9 0 0
BITMAP
461000
4F7000
0DD000
07F400
01FA00
00AF20
003F80
000CE0
0006F5
ENDCHAR
STARTCHAR bracketright
ENCODING 93
SWIDTH 380 0
DWIDTH 5 0
BBX 4 12 0 -2
BITMAP
5997
8FFC
11DC
00DC
00DC
00DC
00DC
00DC
00DC
47EC
8FFC
2332
ENDCHAR
STARTCHAR asciicircum
ENCODING 94
SWIDTH 293 0
DWIDTH 4 0
BBX 4 3 0 6
BITMAP
0300
4EA0
B8C4
ENDCHAR
STARTCHAR underscore
ENCODING 95
SWIDTH 598 0
DWIDTH 7 0
BBX 6 2 1 -3
BITMAP
ACCCC1
ACCCC1
ENDCHAR
STARTCHAR grave
ENCODING 96
SWIDTH 225 0
DWIDTH 3 0
BBX 3 3 0 6
BITMAP
1100
BC10
2B70
ENDCHAR
STARTCHAR a
ENCODING 97
SWIDTH 607 0
DWIDTH 7 0
BBX 7 8 0 -1
BITMAP
00574020
0BFFFBA0
6F829FA0
AE000FA0
9F102FA0
4FC8DFA0
06EFD690
00010000
ENDCHAR
STARTCHAR b
ENCODING 98
SWIDTH 597 0
DWIDTH 7 0
BBX 7 10 0 -1
BITMAP
6C100000
8F100000
8F475000
8FFFFD10
8FB26F90
8F200CC0
6F400DB0
1EE8CF60
03DFE800
00010000
ENDCHAR
STARTCHAR c
ENCODING 99
SWIDTH 521 0
DWIDTH 6 0
BBX 6 8 0 -1
BITMAP
005740
0BFFFA
6F8299
AE0000
9F1011
4FC8DB
06EFE5
000100
ENDCHAR
STARTCHAR d
ENCODING 100
SWIDTH 606 0
DWIDTH 7 0
BBX 7 10 0 -1
BITMAP
00000B80
00000EA0
00574EA0
0BFFFFA0
6F829FA0
AE000FA0
9F102FA0
4FD8DFA0
06EFD690
00010000
ENDCHAR
STARTCHAR e
ENCODING 101
SWIDTH 524 0
DWIDTH 6 0
BBX 6 8 0 -1
BITMAP
005750
0BFFFB
6F87F8
AE2EB0
9FCD21
4FFADC
05EFE5
000100
ENDCHAR
STARTCHAR f
ENCODING 102
SWIDTH 395 0
DWIDTH 5 0
BBX 6 10 0 0
BITMAP
001560
03EFF1
0BE530
3EB430
BFFF90
3FB530
0EA000
0EA000
0EA000
0EA000
ENDCHAR
STARTCHAR g
ENCODING 103
SWIDTH 607 0
DWIDTH 7 0
BBX 7 10 0 -3
BITMAP
00574020
0BFFFBA0
6F829FA0
AE000FA0
9F102FA0
4FD8DFA0
06EFEF90
00159F50
005FF900
00263000
ENDCHAR
STARTCHAR h
ENCODING 104
SWIDTH 562 0
DWIDTH 7 0
BBX 7 9 0 0
BITMAP
4C200000
6F300000
6F552000
6FFFF600
6FA4CE10
6F306F30
6F306F30
6F306F30
6F306F30
ENDCHAR
STARTCHAR i
ENCODING 105
SWIDTH 235 0
DWIDTH 3 0
BBX 3 9 0 0
BITMAP
7F40
7F50
2510
6F30
6F30
6F30
6F30
6F30
6F30
ENDCHAR
STARTCHAR j
ENCODING 106
SWIDTH 237 0
DWIDTH 3 0
BBX 5 12 -2 -3
BITMAP
006F50
007F50
002510
006F40
006F40
006F40
006F40
006F40
007F30
25DE00
CFE400
551000
ENDCHAR
STARTCHAR k
ENCODING 107
SWIDTH 539 0
DWIDTH 6 0
BBX 7 9 0 0
BITMAP
4C200000
6F300000
6F302410
6F31EC10
6F4BE200
6FCF8000
6FFEE100
6FB4F900
6F30AF30
ENDCHAR
STARTCHAR l
ENCODING 108
SWIDTH 235 0
DWIDTH 3 0
BBX 3 9 0 0
BITMAP
4C20
6F30
6F30
6F30
6F30
6F30
6F30
6F30
6F30
ENDCHAR
STARTCHAR m
ENCODING 109
SWIDTH 762 0
DWIDTH 9 0
BBX 9 7 0 0
BITMAP
2144045100
6EFFDFFD10
6F88FA6F70
6F33F60F90
6F33F60F90
6F33F60F90
6F33F60F90
ENDCHAR
STARTCHAR n
ENCODING 110
SWIDTH 562 0
DWIDTH 7 0
BBX 7 7 0 0
BITMAP
20352000
6DFFF600
6FA4CE10
6F306F30
6F306F30
6F306F30
6F306F30
ENDCHAR
STARTCHAR o
ENCODING 111
SWIDTH 579 0
DWIDTH 7 0
BBX 7 8 0 -1
BITMAP
00575000
0BFFFB00
6F829F60
AE000F90
9F102F80
4FC8DF30
06EFE500
00010000
ENDCHAR
STARTCHAR p
ENCODING 112
SWIDTH 608 0
DWIDTH 7 0
BBX 7 10 0 -3
BITMAP
20276100
6CFFFE30
6FC35EB0
6F400AE0
6F600BE0
6FE8AF90
6FCFF910
6F310000
6F300000
26100000
ENDCHAR
STARTCHAR q
ENCODING 113
SWIDTH 607 0
DWIDTH 7 0
BBX 7 10 0 -3
BITMAP
00574020
0BFFFBA0
6F829FA0
AE000FA0
9F102FA0
4FC8DFA0
06EFDFA0
00020EA0
00000EA0
00000540
ENDCHAR
STARTCHAR r
ENCODING 114
SWIDTH 414 0
DWIDTH 5 0
BBX 5 7 0 0
BITMAP
201430
6CFFC0
6FB540
6F3000
6F3000
6F3000
6F3000
ENDCHAR
STARTCHAR s
ENCODING 115
SWIDTH 523 0
DWIDTH 6 0
BBX 6 7 0 0
BITMAP
014442
3EFFF9
8F6553
6FDDC4
07BBEE
5999DE
9FFFE5
ENDCHAR
STARTCHAR t
ENCODING 116
SWIDTH 437 0
DWIDTH 5 0
BBX 5 9 0 0
BITMAP
1C6000
1F8000
4FA440
CFFFF0
5FA550
1F8000
0FA000
0AFA90
01AEF0
ENDCHAR
STARTCHAR u
ENCODING 117
SWIDTH 562 0
DWIDTH 7 0
BBX 7 8 0 -1
BITMAP
24102410
7F207F20
7F207F20
7F207F20
6F308F20
2FC8FF20
06EFBA20
00010000
ENDCHAR
STARTCHAR v
ENCODING 118
SWIDTH 532 0
DWIDTH 6 0
BBX 7 7 0 0
BITMAP
44002410
BF20BF20
5F71FB00
0EC6F500
08FDE000
03FF9000
00CF3000
ENDCHAR
STARTCHAR w
ENCODING 119
SWIDTH 756 0
DWIDTH 9 0
BBX 9 8 0 -1
BITMAP
2411410420
7F24F51F80
7F24F51F80
7F24F51F80
7F24F51F80
4FABFCAF50
09FFAEF900
0011001000
ENDCHAR
STARTCHAR x
ENCODING 120
SWIDTH 528 0
DWIDTH 6 0
BBX 7 7 0 0
BITMAP
45003510
7F72FC00
0AFDE200
01EF5000
04FF9000
1DD9F500
AF41DE20
ENDCHAR
STARTCHAR y
ENCODING 121
SWIDTH 562 0
DWIDTH 7 0
BBX 7 10 0 -3
BITMAP
24102410
7F207F20
7F207F20
7F207F20
6F308F20
2FC8FF20
06EFEF10
0036EC00
00DFD300
00541000
ENDCHAR
STARTCHAR z
ENCODING 122
SWIDTH 481 0
DWIDTH 6 0
BBX 6 7 0 0
BITMAP
344442
BFFFE2
458F80
00BD10
05F600
0DF995
7FFFF8
ENDCHAR
STARTCHAR braceleft
ENCODING 123
SWIDTH 466 0
DWIDTH 6 0
BBX 6 12 0 -2
BITMAP
004991
01FFF2
03F810
03F700
16F600
CFC100
6CF400
04F700
03F700
03FB71
00CFF2
000330
ENDCHAR
STARTCHAR bar
ENCODING 124
SWIDTH 267 0
DWIDTH 3 0
BBX 3 12 0 -2
BITMAP
2940
4F70
4F70
4F70
4F70
4F70
4F70
4F70
4F70
4F70
4F70
1310
ENDCHAR
STARTCHAR braceright
ENCODING 125
SWIDTH 466 0
DWIDTH 6 0
BBX 6 12 0 -2
BITMAP
598100
8FFA00
11DC00
00DC00
00CE21
004FF6
00AF93
00DC00
00DC00
47EC00
8FF600
232000
ENDCHAR
STARTCHAR asciitilde
ENCODING 126
SWIDTH 451 0
DWIDTH 5 0
BBX 5 3 0 3
BITMAP
065360
5FEDC0
3A2940
ENDCHAR
STARTCHAR nonbreakingspace
ENCODING 160
SWIDTH 279 0
DWIDTH 3 0
BBX 1 1 0 0
BITMAP
00
ENDCHAR
STARTCHAR exclamdown
ENCODING 161
SWIDTH 274 0
DWIDTH 3 0
BBX 3 10 0 -2
BITMAP
0100
3F80
2C50
0A30
1F50
2F60
3F70
4F80
4F90
4A70
ENDCHAR
STARTCHAR cent
ENCODING 162
SWIDTH 462 0
DWIDTH 6 0
BBX 5 9 0 0
BITMAP
003400
008800
06EE70
3F77B0
7C0000
5E2260
0BFFB0
009900
008800
ENDCHAR
STARTCHAR sterling
ENCODING 163
SWIDTH 681 0
DWIDTH 8 0
BBX 8 9 0 0
BITMAP
00045000
00CFB000
05F93000
07F30000
5DFD5000
5DFD5000
07F30076
07FBACF8
07FFFE91
ENDCHAR
STARTCHAR currency
ENCODING 164
SWIDTH 454 0
DWIDTH 5 0
BBX 5 6 0 1
BITMAP
120040
6EEDC0
2D1880
1E2880
6DECD0
010020
ENDCHAR
STARTCHAR yen
ENCODING 165
SWIDTH 653 0
DWIDTH 8 0
BBX 8 9 0 0
BITMAP
36200262
7F4006F4
7F4006F4
6F5007F3
2FD55EE0
07FFFE50
2FFFFFF0
177ED770
000EC000
ENDCHAR
STARTCHAR brokenbar
ENCODING 166
SWIDTH 269 0
DWIDTH 3 0
BBX 3 12 0 -2
BITMAP
2940
4F70
4F70
4F70
4F70
1310
2940
4F70
4F70
4F70
4F70
1310
ENDCHAR
STARTCHAR section
ENCODING 167
SWIDTH 569 0
DWIDTH 7 0
BBX 7 9 0 0
BITMAP
01566500
1EFFFC00
4F965300
2FFFFB00
4F969F30
3FDCDF20
06BCDF20
3999BF30
5FFFF900
ENDCHAR
STARTCHAR dieresis
ENCODING 168
SWIDTH 300 0
DWIDTH 4 0
BBX 4 2 0 6
BITMAP
B496
8364
ENDCHAR
STARTCHAR copyright
ENCODING 169
SWIDTH 655 0
DWIDTH 8 0
BBX 8 8 0 0
BITMAP
00488300
07B78C60
3B9AB2C1
77B00095
68C110A4
1C7CC5C0
03CBBB20
00022000
ENDCHAR
STARTCHAR ordfeminine
ENCODING 170
SWIDTH 451 0
DWIDTH 5 0
BBX 5 7 0 2
BITMAP
038320
1E7D80
4B0780
1E9D80
026220
4CCC60
122210
ENDCHAR
STARTCHAR guillemotleft
ENCODING 171
SWIDTH 704 0
DWIDTH 8 0
BBX 8 6 0 0
BITMAP
005C10A8
04FB1AF6
4FB19F60
4EC29F80
03ED28F9
00390075
ENDCHAR
STARTCHAR logicalnot
ENCODING 172
SWIDTH 529 0
DWIDTH 6 0
BBX 6 4 0 2
BITMAP
011110
4FFFF9
2888F9
0000B7
ENDCHAR
STARTCHAR uni00AD
ENCODING 173
SWIDTH 418 0
DWIDTH 5 0
BBX 5 3 0 3
BITMAP
011100
4FFF50
288830
ENDCHAR
STARTCHAR registered
ENCODING 174
SWIDTH 439 0
DWIDTH 5 0
BBX 5 5 0 4
BITMAP
026400
2BA960
754880
58A880
078810
ENDCHAR
STARTCHAR macron
ENCODING 175
SWIDTH 247 0
DWIDTH 3 0
BBX 3 2 0 6
BITMAP
AAA0
9980
ENDCHAR
STARTCHAR degree
ENCODING 176
SWIDTH 381 0
DWIDTH 5 0
BBX 5 5 0 4
BITMAP
012000
2EFA00
8C4F10
5FDD00
047200
ENDCHAR
STARTCHAR plusminus
ENCODING 177
SWIDTH 516 0
DWIDTH 6 0
BBX 6 7 0 0
BITMAP
004600
01BE10
5FFFF8
38DE85
008B00
399995
5FFFF8
ENDCHAR
STARTCHAR twosuperior
ENCODING 178
SWIDTH 355 0
DWIDTH 4 0
BBX 4 5 0 4
BITMAP
1660
2BD8
1CF7
5E94
4BB6
ENDCHAR
STARTCHAR threesuperior
ENCODING 179
SWIDTH 354 0
DWIDTH 4 0
BBX 4 5 0 4
BITMAP
2651
4BD9
0CE9
29CA
3BA3
ENDCHAR
STARTCHAR acute
ENCODING 180
SWIDTH 225 0
DWIDTH 3 0
BBX 3 3 0 6
BITMAP
0200
4E60
B910
ENDCHAR
STARTCHAR mu
ENCODING 181
SWIDTH 571 0
DWIDTH 7 0
BBX 7 10 0 -3
BITMAP
14101410
4F504F50
4F504F50
4F504F50
4F605F50
4FD8EF50
4FEFD950
4F210000
4F100000
3A000000
ENDCHAR
STARTCHAR paragraph
ENCODING 182
SWIDTH 808 0
DWIDTH 10 0
BBX 9 9 0 0
BITMAP
0025666650
06FFFFFFD0
3FD5EC4DD0
7F40EB0CD0
7F40EB0CD0
2FD6EB0CD0
05EFFB0CD0
0014EB0CD0
0000EB0CD0
ENDCHAR
STARTCHAR periodcentered
ENCODING 183
SWIDTH 261 0
DWIDTH 3 0
BBX 3 3 0 3
BITMAP
0200
5F70
2B40
ENDCHAR
STARTCHAR cedilla
ENCODING 184
SWIDTH 208 0
DWIDTH 3 0
BBX 3 4 0 -3
BITMAP
0400
2C10
6D70
7A20
ENDCHAR
STARTCHAR onesuperior
ENCODING 185
SWIDTH 231 0
DWIDTH 3 0
BBX 3 5 0 4
BITMAP
3600
5F10
1F10
1F10
1B00
ENDCHAR
STARTCHAR ordmasculine
ENCODING 186
SWIDTH 432 0
DWIDTH 5 0
BBX 5 7 0 2
BITMAP
038400
1E7D40
4A0870
1D9D30
026200
4CCC60
122210
ENDCHAR
STARTCHAR guillemotright
ENCODING 187
SWIDTH 703 0
DWIDTH 8 0
BBX 8 6 0 0
BITMAP
3D307B00
1DE35FA0
01DE25FA
03ED27F9
3ED28F90
1A104800
ENDCHAR
STARTCHAR onequarter
ENCODING 188
SWIDTH 648 0
DWIDTH 8 0
BBX 8 9 0 0
BITMAP
16200610
2E607C00
0C61E400
0C68B000
086E4100
00A9A9B0
03E2D7F0
0B80FEF5
4E1046F1
ENDCHAR
STARTCHAR onehalf
ENCODING 189
SWIDTH 637 0
DWIDTH 8 0
BBX 8 9 0 0
BITMAP
16200610
2E607C00
0C61E400
0C68B000
086E4200
00A9AFD1
03E23AF2
0B80CC70
4E10CFF2
ENDCHAR
STARTCHAR threequarters
ENCODING 190
SWIDTH 708 0
DWIDTH 9 0
BBX 9 9 0 0
BITMAP
3650026000
5BE60B8000
0EF74E1000
3AD8C70000
5BA7D21000
000D5E8800
007C2F8B00
01E44FEF10
08B0149C00
ENDCHAR
STARTCHAR questiondown
ENCODING 191
SWIDTH 602 0
DWIDTH 7 0
BBX 7 10 0 -2
BITMAP
00001000
0006F500
0004D300
0003A300
004AF300
1CFFA000
7F830000
8F300000
3FFFFFB0
039AAA80
ENDCHAR
STARTCHAR Agrave
ENCODING 192
SWIDTH 673 0
DWIDTH 8 0
BBX 8 12 0 0
BITMAP
00110000
00CC1000
003C6000
00155100
03EFFE40
1DE66EE1
4F7006F5
5F5004F6
5F9558F6
5FFFFFF6
5F8558F6
5F5004F6
ENDCHAR
STARTCHAR Aacute
ENCODING 193
SWIDTH 673 0
DWIDTH 8 0
BBX 8 12 0 0
BITMAP
00001200
0001BC00
0005C300
00155100
03EFFE40
1DE66EE1
4F7006F5
5F5004F6
5F9558F6
5FFFFFF6
5F8558F6
5F5004F6
ENDCHAR
STARTCHAR Acircumflex
ENCODING 194
SWIDTH 673 0
DWIDTH 8 0
BBX 8 12 0 0
BITMAP
00011000
001CC200
00498500
00155100
03EFFE40
1DE66EE1
4F7006F5
5F5004F6
5F9558F6
5FFFFFF6
5F8558F6
5F5004F6
ENDCHAR
STARTCHAR Atilde
ENCODING 195
SWIDTH 673 0
DWIDTH 8 0
BBX 8 12 0 0
BITMAP
00131300
00CFBE00
00949600
00155100
03EFFE40
1DE66EE1
4F7006F5
5F5004F6
5F9558F6
5FFFFFF6
5F8558F6
5F5004F6
ENDCHAR
STARTCHAR Adieresis
ENCODING 196
SWIDTH 673 0
DWIDTH 8 0
BBX 8 10 0 0
BITMAP
00876800
006A9800
03EFFE40
1DE66EE1
4F7006F5
5F5004F6
5F9558F6
5FFFFFF6
5F8558F6
5F5004F6
ENDCHAR
STARTCHAR Aring
ENCODING 197
SWIDTH 673 0
DWIDTH 8 0
BBX 8 11 0 0
BITMAP
00023000
001CC200
001EE200
03EFFE40
1DE66EE1
4F7006F5
5F5004F6
5F9558F6
5FFFFFF6
5F8558F6
5F5004F6
ENDCHAR
STARTCHAR AE
ENCODING 198
SWIDTH 988 0
DWIDTH 12 0
BBX 12 9 0 0
BITMAP
001566666663
03EFFFFFFFF7
1DE647F84442
4F7004F61100
5F5004FFFF20
5F9558FCAA10
5FFFFFF60000
5F8558FCAAA5
5F5004FFFFF7
ENDCHAR
STARTCHAR Ccedilla
ENCODING 199
SWIDTH 640 0
DWIDTH 8 0
BBX 8 12 0 -3
BITMAP
00057610
03DFFFE3
1DF735B0
6F600000
9F100000
8F200000
4FA00020
0BFC8AE2
008EFFB2
0007A100
0018F200
00297000
ENDCHAR
STARTCHAR Egrave
ENCODING 200
SWIDTH 578 0
DWIDTH 7 0
BBX 7 12 0 0
BITMAP
00200000
01E90000
005D3000
16666630
3FFFFF80
3F944420
3F711000
3FFFF300
3FCAA200
3F700000
3FDAAA60
3FFFFF80
ENDCHAR
STARTCHAR Eacute
ENCODING 201
SWIDTH 578 0
DWIDTH 7 0
BBX 7 12 0 0
BITMAP
00002000
0003E700
000A9100
16666630
3FFFFF80
3F944420
3F711000
3FFFF300
3FCAA200
3F700000
3FDAAA60
3FFFFF80
ENDCHAR
STARTCHAR Ecircumflex
ENCODING 202
SWIDTH 578 0
DWIDTH 7 0
BBX 7 12 0 0
BITMAP
00020000
005F8000
0096B100
16666630
3FFFFF80
3F944420
3F711000
3FFFF300
3FCAA200
3F700000
3FDAAA60
3FFFFF80
ENDCHAR
STARTCHAR Edieresis
ENCODING 203
SWIDTH 578 0
DWIDTH 7 0
BBX 7 11 0 0
BITMAP
01B3A400
00928300
16666630
3FFFFF80
3F944420
3F711000
3FFFF300
3FCAA200
3F700000
3FDAAA60
3FFFFF80
ENDCHAR
STARTCHAR Igrave
ENCODING 204
SWIDTH 270 0
DWIDTH 3 0
BBX 4 12 -1 0
BITMAP
0200
3F70
06D1
0163
03F7
03F7
03F7
03F7
03F7
03F7
03F7
03F7
ENDCHAR
STARTCHAR Iacute
ENCODING 205
SWIDTH 270 0
DWIDTH 3 0
BBX 4 12 0 0
BITMAP
0020
04E6
0C81
1630
3F70
3F70
3F70
3F70
3F70
3F70
3F70
3F70
ENDCHAR
STARTCHAR Icircumflex
ENCODING 206
SWIDTH 270 0
DWIDTH 3 0
BBX 4 12 0 0
BITMAP
0200
5F80
96B1
1630
3F70
3F70
3F70
3F70
3F70
3F70
3F70
3F70
ENDCHAR
STARTCHAR Idieresis
ENCODING 207
SWIDTH 270 0
DWIDTH 3 0
BBX 5 11 -1 0
BITMAP
1B2B40
192830
016300
03F700
03F700
03F700
03F700
03F700
03F700
03F700
03F700
ENDCHAR
STARTCHAR Eth
ENCODING 208
SWIDTH 672 0
DWIDTH 8 0
BBX 8 9 0 0
BITMAP
06664000
0FFFFD30
0FC58FE1
1FB005F7
EFFA00FA
8FD601FA
0FB00AF5
0FEBDFA0
0FFFD700
ENDCHAR
STARTCHAR Ntilde
ENCODING 209
SWIDTH 689 0
DWIDTH 8 0
BBX 8 12 0 0
BITMAP
00130300
00AFBF00
00858700
16400163
3FF203F8
3FFA03F8
3FEF43F8
3F8DD3F8
3F75F9F8
3F70BFF8
3F703FF8
3F7009F8
ENDCHAR
STARTCHAR Ograve
ENCODING 210
SWIDTH 777 0
DWIDTH 9 0
BBX 9 13 0 -1
BITMAP
0002000000
002E700000
0006D10000
0005761000
03DFFFF600
1DF735DF40
6F60002EC0
9F10000BE0
9F20000CE0
4FA0005FA0
0BFC8AFE20
008EFFB200
0000210000
ENDCHAR
STARTCHAR Oacute
ENCODING 211
SWIDTH 777 0
DWIDTH 9 0
BBX 9 13 0 -1
BITMAP
0000020000
00003E7000
0000A91000
0005761000
03DFFFF600
1DF735DF40
6F60002EC0
9F10000BE0
9F20000CE0
4FA0005FA0
0BFC8AFE20
008EFFB200
0000210000
ENDCHAR
STARTCHAR Ocircumflex
ENCODING 212
SWIDTH 777 0
DWIDTH 9 0
BBX 9 13 0 -1
BITMAP
0000200000
0004E80000
00096B1000
0005761000
03DFFFF600
1DF735DF40
6F60002EC0
9F10000BE0
9F20000CE0
4FA0005FA0
0BFC8AFE20
008EFFB200
0000210000
ENDCHAR
STARTCHAR Otilde
ENCODING 213
SWIDTH 777 0
DWIDTH 9 0
BBX 9 13 0 -1
BITMAP
0002222000
003FEC8000
002A3A2000
0005761000
03DFFFF600
1DF735DF40
6F60002EC0
9F10000BE0
9F20000CE0
4FA0005FA0
0BFC8AFE20
008EFFB200
0000210000
ENDCHAR
STARTCHAR Odieresis
ENCODING 214
SWIDTH 777 0
DWIDTH 9 0
BBX 9 12 0 -1
BITMAP
001B3A4000
0009283000
0005761000
03DFFFF600
1DF735DF40
6F60002EC0
9F10000BE0
9F20000CE0
4FA0005FA0
0BFC8AFE20
008EFFB200
0000210000
ENDCHAR
STARTCHAR multiply
ENCODING 215
SWIDTH 479 0
DWIDTH 6 0
BBX 6 5 0 2
BITMAP
040230
3FBDE1
09FF40
2DFFB0
1B4890
ENDCHAR
STARTCHAR Oslash
ENCODING 216
SWIDTH 777 0
DWIDTH 9 0
BBX 9 10 0 -1
BITMAP
0005763620
03DFFFFD10
1DF73AFF40
6F603F8EC0
9F11DA0BF0
9F2AD10CE0
4FCF405FA0
0AFE8AFE20
0CDEFFB200
0001210000
ENDCHAR
STARTCHAR Ugrave
ENCODING 217
SWIDTH 673 0
DWIDTH 8 0
BBX 8 12 0 0
BITMAP
00110000
00AD2000
002B8000
26200262
5F5004F6
5F5004F6
5F5004F6
5F5004F6
5F6004F6
3FA009F4
0AFCCFB0
018EE910
ENDCHAR
STARTCHAR Uacute
ENCODING 218
SWIDTH 673 0
DWIDTH 8 0
BBX 8 12 0 0
BITMAP
00000200
0001BD00
0004D400
26200262
5F5004F6
5F5004F6
5F5004F6
5F5004F6
5F6004F6
3FA009F4
0AFCCFB0
018EE910
ENDCHAR
STARTCHAR Ucircumflex
ENCODING 219
SWIDTH 673 0
DWIDTH 8 0
BBX 8 12 0 0
BITMAP
00011000
001CC200
00498500
26200262
5F5004F6
5F5004F6
5F5004F6
5F5004F6
5F6004F6
3FA009F4
0AFCCFB0
018EE910
ENDCHAR
STARTCHAR Udieresis
ENCODING 220
SWIDTH 673 0
DWIDTH 8 0
BBX 8 10 0 0
BITMAP
00876800
26854862
5F5004F6
5F5004F6
5F5004F6
5F5004F6
5F6004F6
3FA009F4
0AFCCFB0
018EE910
ENDCHAR
STARTCHAR Yacute
ENCODING 221
SWIDTH 620 0
DWIDTH 7 0
BBX 8 12 0 0
BITMAP
00002000
0003E700
000AA100
46000460
AF1009F1
AF1009F1
9F200AF0
4FB47FB0
09FFFD20
004FA100
002F8000
002F8000
ENDCHAR
STARTCHAR Thorn
ENCODING 222
SWIDTH 637 0
DWIDTH 8 0
BBX 8 10 0 -1
BITMAP
2C500000
3FC88300
3FFFFF70
3F823CF3
3F7004F7
3F7006F6
3FB89EE1
3FFFFC30
3F821000
15300000
ENDCHAR
STARTCHAR germandbls
ENCODING 223
SWIDTH 813 0
DWIDTH 10 0
BBX 10 10 0 0
BITMAP
0015651000
03EFFFE300
0BE534EA00
3EA014EA00
BFA2EFE400
3FA8F61000
0EA6FDDDA1
0EA07BBBF8
0EA19999F8
0EA1FFFFB1
ENDCHAR
STARTCHAR agrave
ENCODING 224
SWIDTH 607 0
DWIDTH 7 0
BBX 7 11 0 -1
BITMAP
00200000
04F50000
008C0000
00574020
0BFFFBA0
6F829FA0
AE000FA0
9F102FA0
4FC8DFA0
06EFD690
00010000
ENDCHAR
STARTCHAR aacute
ENCODING 225
SWIDTH 607 0
DWIDTH 7 0
BBX 7 11 0 -1
BITMAP
00002000
0006F300
001D7000
00574020
0BFFFBA0
6F829FA0
AE000FA0
9F102FA0
4FC8DFA0
06EFD690
00010000
ENDCHAR
STARTCHAR acircumflex
ENCODING 226
SWIDTH 607 0
DWIDTH 7 0
BBX 7 11 0 -1
BITMAP
00020000
007F6000
00A5A000
00574020
0BFFFBA0
6F829FA0
AE000FA0
9F102FA0
4FC8DFA0
06EFD690
00010000
ENDCHAR
STARTCHAR atilde
ENCODING 227
SWIDTH 607 0
DWIDTH 7 0
BBX 7 11 0 -1
BITMAP
00312100
05FDD600
04859100
00574020
0BFFFBA0
6F829FA0
AE000FA0
9F102FA0
4FC8DFA0
06EFD690
00010000
ENDCHAR
STARTCHAR adieresis
ENCODING 228
SWIDTH 607 0
DWIDTH 7 0
BBX 7 10 0 -1
BITMAP
02B2B200
02919100
00574020
0BFFFBA0
6F829FA0
AE000FA0
9F102FA0
4FC8DFA0
06EFD690
00010000
ENDCHAR
STARTCHAR aring
ENCODING 229
SWIDTH 607 0
DWIDTH 7 0
BBX 7 11 0 -1
BITMAP
00161000
00998000
004C4000
00574020
0BFFFBA0
6F829FA0
AE000FA0
9F102FA0
4FC8DFA0
06EFD690
00010000
ENDCHAR
STARTCHAR ae
ENCODING 230
SWIDTH 976 0
DWIDTH 12 0
BBX 12 8 0 -1
BITMAP
005740237620
0BFFFBEFFFE3
6F829FFC4ED1
AE000FF5AE30
9F102FFCF520
4FC8DFFFDAF3
06EFD6BBFFA1
000100001100
ENDCHAR
STARTCHAR ccedilla
ENCODING 231
SWIDTH 521 0
DWIDTH 6 0
BBX 6 10 0 -3
BITMAP
005740
0BFFFA
6F8299
AE0000
AF1011
4FC8DB
06EFE5
003C10
007D60
008910
ENDCHAR
STARTCHAR egrave
ENCODING 232
SWIDTH 524 0
DWIDTH 6 0
BBX 6 11 0 -1
BITMAP
002000
06E400
019B00
005750
0BFFFB
6F87F8
AE2EB0
9FCD21
4FFADC
05EFE5
000100
ENDCHAR
STARTCHAR eacute
ENCODING 233
SWIDTH 524 0
DWIDTH 6 0
BBX 6 11 0 -1
BITMAP
000020
0007F3
001D70
005750
0BFFFB
6F87F8
AE2EB0
9FCD21
4FFADC
05EFE5
000100
ENDCHAR
STARTCHAR ecircumflex
ENCODING 234
SWIDTH 524 0
DWIDTH 6 0
BBX 6 11 0 -1
BITMAP
000200
00BE30
02A770
005750
0BFFFB
6F87F8
AE2EB0
9FCD21
4FFADC
05EFE5
000100
ENDCHAR
STARTCHAR edieresis
ENCODING 235
SWIDTH 524 0
DWIDTH 6 0
BBX 6 10 0 -1
BITMAP
0694A0
047380
005750
0BFFFB
6F87F8
AE2EB0
9FCD21
4FFADC
05EFE5
000100
ENDCHAR
STARTCHAR igrave
ENCODING 236
SWIDTH 235 0
DWIDTH 3 0
BBX 4 10 -1 0
BITMAP
0200
5F50
18C0
0241
06F3
06F3
06F3
06F3
06F3
06F3
ENDCHAR
STARTCHAR iacute
ENCODING 237
SWIDTH 235 0
DWIDTH 3 0
BBX 4 10 0 0
BITMAP
0020
07F3
1D60
2410
6F30
6F30
6F30
6F30
6F30
6F30
ENDCHAR
STARTCHAR icircumflex
ENCODING 238
SWIDTH 235 0
DWIDTH 3 0
BBX 3 10 0 0
BITMAP
0200
7F50
A5A0
2410
6F30
6F30
6F30
6F30
6F30
6F30
ENDCHAR
STARTCHAR idieresis
ENCODING 239
SWIDTH 235 0
DWIDTH 3 0
BBX 5 8 -1 0
BITMAP
3B2B10
2A5A10
06F300
06F300
06F300
06F300
06F300
06F300
ENDCHAR
STARTCHAR eth
ENCODING 240
SWIDTH 581 0
DWIDTH 7 0
BBX 7 11 0 -1
BITMAP
00121000
039FC630
06EEFF70
0047FC00
0BFFFF20
6F829F70
AE000FA0
9F102F80
4FC8DF30
06EFD500
00010000
ENDCHAR
STARTCHAR ntilde
ENCODING 241
SWIDTH 562 0
DWIDTH 7 0
BBX 7 10 0 0
BITMAP
00313100
06FDE500
05869100
20352000
6DFFF600
6FA4CE10
6F306F30
6F306F30
6F306F30
6F306F30
ENDCHAR
STARTCHAR ograve
ENCODING 242
SWIDTH 579 0
DWIDTH 7 0
BBX 7 11 0 -1
BITMAP
00200000
05F50000
018C0000
00575000
0BFFFB00
6F829F60
AE000F90
9F102F80
4FC8DF30
06EFE500
00010000
ENDCHAR
STARTCHAR oacute
ENCODING 243
SWIDTH 579 0
DWIDTH 7 0
BBX 7 11 0 -1
BITMAP
00002000
0007F300
001D7000
00575000
0BFFFB00
6F829F60
AE000F90
9F102F80
4FC8DF30
06EFE500
00010000
ENDCHAR
STARTCHAR ocircumflex
ENCODING 244
SWIDTH 579 0
DWIDTH 7 0
BBX 7 11 0 -1
BITMAP
00020000
007F6000
00A5A000
00575000
0BFFFB00
6F829F60
AE000F90
9F102F80
4FC8DF30
06EFE500
00010000
ENDCHAR
STARTCHAR otilde
ENCODING 245
SWIDTH 579 0
DWIDTH 7 0
BBX 7 11 0 -1
BITMAP
00313100
06FDD500
04859100
00575000
0BFFFB00
6F829F60
AE000F90
9F102F80
4FC8DF30
06EFE500
00010000
ENDCHAR
STARTCHAR odieresis
ENCODING 246
SWIDTH 579 0
DWIDTH 7 0
BBX 7 10 0 -1
BITMAP
03B2B200
02919100
00575000
0BFFFB00
6F829F60
AE000F90
9F102F80
4FC8DF30
06EFE500
00010000
ENDCHAR
STARTCHAR divide
ENCODING 247
SWIDTH 494 0
DWIDTH 6 0
BBX 6 7 0 1
BITMAP
001100
00CB00
015510
8FFFF6
489883
00BB00
006500
ENDCHAR
STARTCHAR oslash
ENCODING 248
SWIDTH 579 0
DWIDTH 7 0
BBX 7 8 0 -1
BITMAP
00575530
0BFFFF20
6F87FF60
AE2E9F90
9FCC2F80
4FFADF30
5FEFE500
00010000
ENDCHAR
STARTCHAR ugrave
ENCODING 249
SWIDTH 562 0
DWIDTH 7 0
BBX 7 11 0 -1
BITMAP
00200000
07E40000
019B0000
24102410
7F207F20
7F207F20
7F207F20
6F308F20
2FC8FF20
06EFBA20
00010000
ENDCHAR
STARTCHAR uacute
ENCODING 250
SWIDTH 562 0
DWIDTH 7 0
BBX 7 11 0 -1
BITMAP
00002000
0008E200
001D6000
24102410
7F207F20
7F207F20
7F207F20
6F308F20
2FC8FF20
06EFBA20
00010000
ENDCHAR
STARTCHAR ucircumflex
ENCODING 251
SWIDTH 562 0
DWIDTH 7 0
BBX 7 11 0 -1
BITMAP
00020000
009E4000
01A69000
24102410
7F207F20
7F207F20
7F207F20
6F308F20
2FC8FF20
06EFBA20
00010000
ENDCHAR
STARTCHAR udieresis
ENCODING 252
SWIDTH 562 0
DWIDTH 7 0
BBX 7 9 0 -1
BITMAP
04B2B100
2792B510
7F207F20
7F207F20
7F207F20
6F308F20
2FC8FF20
06EFBA20
00010000
ENDCHAR
STARTCHAR yacute
ENCODING 253
SWIDTH 562 0
DWIDTH 7 0
BBX 7 13 0 -3
BITMAP
00002000
0008E200
002D6000
24102410
7F207F20
7F207F20
7F207F20
6F308F20
2FC8FF20
06EFEF10
0036EC00
00DFD300
00541000
ENDCHAR
STARTCHAR thorn
ENCODING 254
SWIDTH 608 0
DWIDTH 7 0
BBX 7 12 0 -3
BITMAP
5D400000
6F400000
6F676100
6FFFFE30
6FC35EB0
6F400AE0
6F600BE0
6FE9AF80
6FCFFA10
6F310000
6F300000
26100000
ENDCHAR
STARTCHAR ydieresis
ENCODING 255
SWIDTH 562 0
DWIDTH 7 0
BBX 7 11 0 -3
BITMAP
04B2B100
2792B510
7F207F20
7F207F20
7F207F20
6F308F20
2FC8FF20
06EFEF10
0036EC00
00DFD300
00541000
ENDCHAR
STARTCHAR Amacron
ENCODING 256
SWIDTH 673 0
DWIDTH 8 0
BBX 8 10 0 0
BITMAP
004AA500
005EE600
03EFFE40
1DE66EE1
4F7006F5
5F5004F6
5F9558F6
5FFFFFF6
5F8558F6
5F5004F6
ENDCHAR
STARTCHAR amacron
ENCODING 257
SWIDTH 607 0
DWIDTH 7 0
BBX 7 10 0 -1
BITMAP
01AA9000
01998000
00574020
0BFFFBA0
6F829FA0
AE000FA0
9F102FA0
4FC8DFA0
06EFD690
00010000
ENDCHAR
STARTCHAR Abreve
ENCODING 258
SWIDTH 673 0
DWIDTH 8 0
BBX 8 11 0 0
BITMAP
00122000
004DD300
001BC100
03EFFE40
1DE66EE1
4F7006F5
5F5004F6
5F9558F6
5FFFFFF6
5F8558F6
5F5004F6
ENDCHAR
STARTCHAR abreve
ENCODING 259
SWIDTH 607 0
DWIDTH 7 0
BBX 7 11 0 -1
BITMAP
00211000
00EB9000
00482000
00574020
0BFFFBA0
6F829FA0
AE000FA0
9F102FA0
4FC8DFA0
06EFD690
00010000
ENDCHAR
STARTCHAR Aogonek
ENCODING 260
SWIDTH 673 0
DWIDTH 8 0
BBX 8 12 0 -3
BITMAP
00155100
03EFFE40
1DE66EE1
4F7006F5
5F5004F6
5F9558F6
5FFFFFF6
5F8558F6
5F5004F6
00000691
000007F9
00000010
ENDCHAR
STARTCHAR aogonek
ENCODING 261
SWIDTH 607 0
DWIDTH 7 0
BBX 8 10 0 -3
BITMAP
00574020
0BFFFBA0
6F829FA0
AE000FA0
9F102FA0
4FC8DFA0
06EFD6A0
00010A70
00000BF5
00000010
ENDCHAR
STARTCHAR Cacute
ENCODING 262
SWIDTH 640 0
DWIDTH 8 0
BBX 8 13 0 -1
BITMAP
00000200
00007F30
0001D700
00057610
03DFFFE3
1DF735B0
6F600000
9F100000
9F200000
4FA00020
0BFC8AE2
008EFFB2
00002100
ENDCHAR
STARTCHAR cacute
ENCODING 263
SWIDTH 521 0
DWIDTH 6 0
BBX 6 11 0 -1
BITMAP
000020
0008E2
002D60
005740
0BFFFA
6F8299
AE0000
9F1011
4FC8DB
06EFE5
000100
ENDCHAR
STARTCHAR Ccircumflex
ENCODING 264
SWIDTH 640 0
DWIDTH 8 0
BBX 8 13 0 -1
BITMAP
00002000
0008F500
001A5A00
00057610
03DFFFE3
1DF735B0
6F600000
9F100000
9F200000
4FA00020
0BFC8AE2
008EFFB2
00002100
ENDCHAR
STARTCHAR ccircumflex
ENCODING 265
SWIDTH 521 0
DWIDTH 6 0
BBX 6 11 0 -1
BITMAP
000200
007F50
00A5A0
005740
0BFFFA
6F8299
AE0000
9F1011
4FC8DB
06EFE5
000100
ENDCHAR
STARTCHAR Cdotaccent
ENCODING 266
SWIDTH 640 0
DWIDTH 8 0
BBX 8 12 0 -1
BITMAP
0001D300
00007100
00057610
03DFFFE3
1DF735B0
6F600000
9F100000
9F200000
4FA00020
0BFC8AE2
008EFFB2
00002100
ENDCHAR
STARTCHAR cdotaccent
ENCODING 267
SWIDTH 521 0
DWIDTH 6 0
BBX 6 10 0 -1
BITMAP
002D20
001710
005740
0BFFFA
6F8299
AE0000
9F1011
4FC8DB
06EFE5
000100
ENDCHAR
STARTCHAR Ccaron
ENCODING 268
SWIDTH 640 0
DWIDTH 8 0
BBX 8 13 0 -1
BITMAP
00030300
000BDD10
00019200
00057610
03DFFFE3
1DF735B0
6F600000
9F100000
9F200000
4FA00020
0BFC8AE2
008EFFB2
00002100
ENDCHAR
STARTCHAR ccaron
ENCODING 269
SWIDTH 521 0
DWIDTH 6 0
BBX 6 11 0 -1
BITMAP
003030
00DDC0
001910
005740
0BFFFA
6F8299
AE0000
9F1011
4FC8DB
06EFE5
000100
ENDCHAR
STARTCHAR Dcaron
ENCODING 270
SWIDTH 653 0
DWIDTH 8 0
BBX 8 12 0 0
BITMAP
00223000
006DE400
00075000
16663000
3FFFFB10
3F95AFC0
3F7009F4
3F7004F7
3F7005F6
3F701DF2
3FDBEF70
3FFFC500
ENDCHAR
STARTCHAR dcaron
ENCODING 271
SWIDTH 740 0
DWIDTH 9 0
BBX 9 10 0 -1
BITMAP
00000B8230
00000EAAD0
00574EA390
0BFFFFA000
6F829FA000
AE000FA000
9F102FA000
4FD8DFA000
06EFD69000
0001000000
ENDCHAR
STARTCHAR Dcroat
ENCODING 272
SWIDTH 672 0
DWIDTH 8 0
BBX 8 9 0 0
BITMAP
06664000
0FFFFD30
0FC58FE1
1FB005F7
EFFA00FA
8FD601FA
0FB00AF5
0FEBDFA0
0FFFD700
ENDCHAR
STARTCHAR dcroat
ENCODING 273
SWIDTH 606 0
DWIDTH 7 0
BBX 8 10 0 -1
BITMAP
00004BA2
00009FF4
00575EB1
0BFFFFA0
6F829FA0
AE000FA0
9F102FA0
4FD8DFA0
06EFD690
00010000
ENDCHAR
STARTCHAR Emacron
ENCODING 274
SWIDTH 578 0
DWIDTH 7 0
BBX 7 10 0 0
BITMAP
006AA300
16CFF930
3FFFFF80
3F944420
3F711000
3FFFF300
3FCAA200
3F700000
3FDAAA60
3FFFFF80
ENDCHAR
STARTCHAR emacron
ENCODING 275
SWIDTH 524 0
DWIDTH 6 0
BBX 6 10 0 -1
BITMAP
01AA90
019980
005750
0BFFFB
6F87F8
AE2EB0
9FCD21
4FFADC
05EFE5
000100
ENDCHAR
STARTCHAR Ebreve
ENCODING 276
SWIDTH 578 0
DWIDTH 7 0
BBX 7 11 0 0
BITMAP
00112000
009BE000
168EA630
3FFFFF80
3F944420
3F711000
3FFFF300
3FCAA200
3F700000
3FDAAA60
3FFFFF80
ENDCHAR
STARTCHAR ebreve
ENCODING 277
SWIDTH 524 0
DWIDTH 6 0
BBX 6 11 0 -1
BITMAP
002110
00EB80
004820
005750
0BFFFB
6F87F8
AE2EB0
9FCD21
4FFADC
05EFE5
000100
ENDCHAR
STARTCHAR Edotaccent
ENCODING 278
SWIDTH 578 0
DWIDTH 7 0
BBX 7 10 0 0
BITMAP
000D4000
166D8630
3FFFFF80
3F944420
3F711000
3FFFF300
3FCAA200
3F700000
3FDAAA60
3FFFFF80
ENDCHAR
STARTCHAR edotaccent
ENCODING 279
SWIDTH 524 0
DWIDTH 6 0
BBX 6 10 0 -1
BITMAP
003D10
001700
005750
0BFFFB
6F87F8
AE2EB0
9FCD21
4FFADC
05EFE5
000100
ENDCHAR
STARTCHAR Eogonek
ENCODING 280
SWIDTH 578 0
DWIDTH 7 0
BBX 7 12 0 -3
BITMAP
16666630
3FFFFF80
3F944420
3F711000
3FFFF300
3FCAA200
3F700000
3FDAAA60
3FFFFF80
0000B400
0000DF40
00000100
ENDCHAR
STARTCHAR eogonek
ENCODING 281
SWIDTH 524 0
DWIDTH 6 0
BBX 6 10 0 -3
BITMAP
005750
0BFFFB
6F87F8
AE2EB0
9FCD21
4FFADC
05EFE5
000A70
0009F7
000010
ENDCHAR
STARTCHAR Ecaron
ENCODING 282
SWIDTH 578 0
DWIDTH 7 0
BBX 7 12 0 0
BITMAP
00303000
009DE100
00093000
16666630
3FFFFF80
3F944420
3F711000
3FFFF300
3FCAA200
3F700000
3FDAAA60
3FFFFF80
ENDCHAR
STARTCHAR ecaron
ENCODING 283
SWIDTH 524 0
DWIDTH 6 0
BBX 6 11 0 -1
BITMAP
003030
01DDB0
002910
005750
0BFFFB
6F87F8
AE2EB0
9FCD21
4FFADC
05EFE5
000100
ENDCHAR
STARTCHAR Gcircumflex
ENCODING 284
SWIDTH 665 0
DWIDTH 8 0
BBX 8 13 0 -1
BITMAP
00002000
0007F600
000A5A00
00057610
03DFFFE3
1DF836B0
6F600000
9F100031
9F2002F7
5FA002F7
0BFC8AF7
009EFFB2
00002100
ENDCHAR
STARTCHAR gcircumflex
ENCODING 285
SWIDTH 607 0
DWIDTH 7 0
BBX 7 13 0 -3
BITMAP
00020000
007F5000
00A5A000
00574020
0BFFFBA0
6F829FA0
AE000FA0
9F102FA0
4FD8DFA0
06EFEF90
00159F50
005FF900
00263000
ENDCHAR
STARTCHAR Gbreve
ENCODING 286
SWIDTH 665 0
DWIDTH 8 0
BBX 8 13 0 -1
BITMAP
00021200
000BBC00
00028300
00057610
03DFFFE3
1DF836B0
6F600000
9F100031
9F2002F7
5FA002F7
0BFC8AF7
009EFFB2
00002100
ENDCHAR
STARTCHAR gbreve
ENCODING 287
SWIDTH 607 0
DWIDTH 7 0
BBX 7 13 0 -3
BITMAP
00211000
00DBA000
00382000
00574020
0BFFFBA0
6F829FA0
AE000FA0
9F102FA0
4FD8DFA0
06EFEF90
00159F50
005FF900
00263000
ENDCHAR
STARTCHAR Gdotaccent
ENCODING 288
SWIDTH 665 0
DWIDTH 8 0
BBX 8 12 0 -1
BITMAP
0002D200
00017100
00057610
03DFFFE3
1DF836B0
6F600000
9F100031
9F2002F7
5FA002F7
0BFC8AF7
009EFFB2
00002100
ENDCHAR
STARTCHAR gdotaccent
ENCODING 289
SWIDTH 607 0
DWIDTH 7 0
BBX 7 12 0 -3
BITMAP
003D1000
00170000
00574020
0BFFFBA0
6F829FA0
AE000FA0
9F102FA0
4FD8DFA0
06EFEF90
00159F50
005FF900
00263000
ENDCHAR
STARTCHAR Gcommaaccent
ENCODING 290
SWIDTH 665 0
DWIDTH 8 0
BBX 8 12 0 -3
BITMAP
00057610
03DFFFE3
1DF836B0
6F600000
9F100031
9F2002F7
5FA002F7
0BFC8AF7
009EFFB2
00018200
0004F300
0000B100
ENDCHAR
STARTCHAR gcommaaccent
ENCODING 291
SWIDTH 607 0
DWIDTH 7 0
BBX 7 13 0 -3
BITMAP
00180000
005E2000
00280000
00574020
0BFFFBA0
6F829FA0
AE000FA0
9F102FA0
4FD8DFA0
06EFEF90
00159F50
005FF900
00263000
ENDCHAR
STARTCHAR Hcircumflex
ENCODING 292
SWIDTH 689 0
DWIDTH 8 0
BBX 8 12 0 0
BITMAP
00001000
001BD200
003A7600
16300163
3F7003F8
3F7003F8
3F7113F8
3FFFFFF8
3FCAABF8
3F7003F8
3F7003F8
3F7003F8
ENDCHAR
STARTCHAR hcircumflex
ENCODING 293
SWIDTH 562 0
DWIDTH 7 0
BBX 7 10 0 0
BITMAP
00011000
4C3CD200
6F6A7600
6F552000
6FFFF600
6FA4CE10
6F306F30
6F306F30
6F306F30
6F306F30
ENDCHAR
STARTCHAR Hbar
ENCODING 294
SWIDTH 689 0
DWIDTH 8 0
BBX 9 9 0 0
BITMAP
1630016300
6FA557FA00
CFFFFFFF10
5F9446F900
3FFFFFF800
3FCAABF800
3F7003F800
3F7003F800
3F7003F800
ENDCHAR
STARTCHAR hbar
ENCODING 295
SWIDTH 562 0
DWIDTH 7 0
BBX 7 9 0 0
BITMAP
8C600000
FFC00000
7F652000
6FFFF600
6FA4CE10
6F306F30
6F306F30
6F306F30
6F306F30
ENDCHAR
STARTCHAR Itilde
ENCODING 296
SWIDTH 270 0
DWIDTH 3 0
BBX 5 12 -1 0
BITMAP
031220
3FEC80
3A4A20
016300
03F700
03F700
03F700
03F700
03F700
03F700
03F700
03F700
ENDCHAR
STARTCHAR itilde
ENCODING 297
SWIDTH 235 0
DWIDTH 3 0
BBX 5 9 -1 0
BITMAP
031310
6FDE50
59AA10
06F300
06F300
06F300
06F300
06F300
06F300
ENDCHAR
STARTCHAR Imacron
ENCODING 298
SWIDTH 270 0
DWIDTH 3 0
BBX 4 10 0 0
BITMAP
8AA1
9FC1
3F70
3F70
3F70
3F70
3F70
3F70
3F70
3F70
ENDCHAR
STARTCHAR imacron
ENCODING 299
SWIDTH 235 0
DWIDTH 3 0
BBX 3 8 0 0
BITMAP
AA90
AD90
6F30
6F30
6F30
6F30
6F30
6F30
ENDCHAR
STARTCHAR Ibreve
ENCODING 300
SWIDTH 270 0
DWIDTH 3 0
BBX 3 11 0 0
BITMAP
1120
9BE0
3E70
3F70
3F70
3F70
3F70
3F70
3F70
3F70
3F70
ENDCHAR
STARTCHAR ibreve
ENCODING 301
SWIDTH 235 0
DWIDTH 3 0
BBX 3 9 0 0
BITMAP
2110
DBA0
5C30
6F30
6F30
6F30
6F30
6F30
6F30
ENDCHAR
STARTCHAR Iogonek
ENCODING 302
SWIDTH 270 0
DWIDTH 3 0
BBX 3 12 0 -3
BITMAP
1630
3F70
3F70
3F70
3F70
3F70
3F70
3F70
3F70
6A10
6F90
0100
ENDCHAR
STARTCHAR iogonek
ENCODING 303
SWIDTH 235 0
DWIDTH 3 0
BBX 3 12 0 -3
BITMAP
7F40
7F50
2510
6F30
6F30
6F30
6F30
6F30
6F30
7800
9F80
0100
ENDCHAR
STARTCHAR Idotaccent
ENCODING 304
SWIDTH 270 0
DWIDTH 3 0
BBX 3 10 0 0
BITMAP
1D30
2D40
3F70
3F70
3F70
3F70
3F70
3F70
3F70
3F70
ENDCHAR
STARTCHAR dotlessi
ENCODING 305
SWIDTH 235 0
DWIDTH 3 0
BBX 3 7 0 0
BITMAP
2410
6F30
6F30
6F30
6F30
6F30
6F30
ENDCHAR
STARTCHAR IJ
ENCODING 306
SWIDTH 687 0
DWIDTH 8 0
BBX 8 9 0 0
BITMAP
16300163
3F7002F8
3F7002F8
3F7002F8
3F7002F8
3F7002F8
3F7007F6
3F78BFD1
3F79EA20
ENDCHAR
STARTCHAR ij
ENCODING 307
SWIDTH 474 0
DWIDTH 6 0
BBX 6 12 0 -3
BITMAP
7F49E2
7F59F3
251250
6F38F1
6F38F1
6F38F1
6F38F1
6F38F1
6F39F1
036EB0
0EFD20
064000
ENDCHAR
STARTCHAR Jcircumflex
ENCODING 308
SWIDTH 416 0
DWIDTH 5 0
BBX 5 12 0 0
BITMAP
000200
007F50
00A5A0
002620
005F50
005F50
005F50
005F50
006F50
00AF30
ACFA00
CE9100
ENDCHAR
STARTCHAR jcircumflex
ENCODING 309
SWIDTH 237 0
DWIDTH 3 0
BBX 5 13 -2 -3
BITMAP
000200
007F50
00A5A0
002410
006F40
006F40
006F40
006F40
006F40
007F30
25DE00
CFE400
551000
ENDCHAR
STARTCHAR Kcommaaccent
ENCODING 310
SWIDTH 625 0
DWIDTH 8 0
BBX 8 12 0 -3
BITMAP
16300362
3F702EC0
3F70CE20
3F79F500
3FCFE100
3FFDF900
3FE2BF20
3F803FA0
3F700AF3
00052000
000E8000
00084000
ENDCHAR
STARTCHAR kcommaaccent
ENCODING 311
SWIDTH 539 0
DWIDTH 6 0
BBX 7 12 0 -3
BITMAP
4C200000
6F300000
6F302410
6F31EC10
6F4BE200
6FCF8000
6FFEE100
6FB4F900
6F30AF30
00240000
007F0000
001B0000
ENDCHAR
STARTCHAR kgreenlandic
ENCODING 312
SWIDTH 539 0
DWIDTH 6 0
BBX 7 7 0 0
BITMAP
25102410
6F31EC10
6F4BE200
6FCF8000
6FFEE100
6FB4F900
6F30AF30
ENDCHAR
STARTCHAR Lacute
ENCODING 313
SWIDTH 562 0
DWIDTH 7 0
BBX 7 11 0 0
BITMAP
00002000
000AD100
166D4000
3F700000
3F700000
3F700000
3F700000
3F700000
3F700000
3FDAAA70
3FFFFFA0
ENDCHAR
STARTCHAR lacute
ENCODING 314
SWIDTH 235 0
DWIDTH 3 0
BBX 4 12 0 0
BITMAP
0020
03E8
09A1
4C20
6F30
6F30
6F30
6F30
6F30
6F30
6F30
6F30
ENDCHAR
STARTCHAR Lcommaaccent
ENCODING 315
SWIDTH 562 0
DWIDTH 7 0
BBX 7 12 0 -3
BITMAP
16300000
3F700000
3F700000
3F700000
3F700000
3F700000
3F700000
3FDAAA70
3FFFFFA0
00150000
005F2000
000B0000
ENDCHAR
STARTCHAR lcommaaccent
ENCODING 316
SWIDTH 235 0
DWIDTH 3 0
BBX 3 12 0 -3
BITMAP
4C20
6F30
6F30
6F30
6F30
6F30
6F30
6F30
6F30
1500
4F30
0B00
ENDCHAR
STARTCHAR Lcaron
ENCODING 317
SWIDTH 562 0
DWIDTH 7 0
BBX 7 9 0 0
BITMAP
16333000
3F7BB000
3F747000
3F700000
3F700000
3F700000
3F700000
3FDAAA70
3FFFFFA0
ENDCHAR
STARTCHAR lcaron
ENCODING 318
SWIDTH 369 0
DWIDTH 4 0
BBX 5 9 0 0
BITMAP
4C3510
6F5F60
6F3A20
6F3000
6F3000
6F3000
6F3000
6F3000
6F3000
ENDCHAR
STARTCHAR Ldot
ENCODING 319
SWIDTH 745 0
DWIDTH 9 0
BBX 9 9 0 0
BITMAP
1630000000
3F70000000
3F70000000
3F70000200
3F70008F40
3F70004B20
3F70000000
3FDAAA7000
3FFFFFA000
ENDCHAR
STARTCHAR ldotaccent
ENCODING 320
SWIDTH 463 0
DWIDTH 6 0
BBX 5 9 0 0
BITMAP
4C2000
6F3000
6F3000
6F3110
6F3DD0
6F3990
6F3000
6F3000
6F3000
ENDCHAR
STARTCHAR Lslash
ENCODING 321
SWIDTH 585 0
DWIDTH 7 0
BBX 7 9 0 0
BITMAP
06400000
0EB00000
0EB00000
0ED90000
4FF80000
EFB00000
4EB00000
0EEAAAA0
0EFFFFE0
ENDCHAR
STARTCHAR lslash
ENCODING 322
SWIDTH 319 0
DWIDTH 4 0
BBX 4 9 0 0
BITMAP
0B80
0EA0
0EA0
0ED9
4FF9
DFB0
4EA0
0EA0
0EA0
ENDCHAR
STARTCHAR Nacute
ENCODING 323
SWIDTH 689 0
DWIDTH 8 0
BBX 8 12 0 0
BITMAP
00000200
0001BD00
0004D400
16400163
3FF203F8
3FFA03F8
3FEF43F8
3F8DD3F8
3F75F9F8
3F70BFF8
3F703FF8
3F7009F8
ENDCHAR
STARTCHAR nacute
ENCODING 324
SWIDTH 562 0
DWIDTH 7 0
BBX 7 10 0 0
BITMAP
00002000
0004E600
000B9100
20352000
6DFFF600
6FA4CE10
6F306F30
6F306F30
6F306F30
6F306F30
ENDCHAR
STARTCHAR Ncommaaccent
ENCODING 325
SWIDTH 689 0
DWIDTH 8 0
BBX 8 12 0 -3
BITMAP
16400163
3FF203F8
3FFA03F8
3FEF43F8
3F8DD3F8
3F75F9F8
3F70BFF8
3F703FF8
3F7009F8
00024000
0008E000
0002A000
ENDCHAR
STARTCHAR ncommaaccent
ENCODING 326
SWIDTH 562 0
DWIDTH 7 0
BBX 7 10 0 -3
BITMAP
20352000
6DFFF600
6FA4CE10
6F306F30
6F306F30
6F306F30
6F306F30
00150000
005F2000
000B0000
ENDCHAR
STARTCHAR Ncaron
ENCODING 327
SWIDTH 689 0
DWIDTH 8 0
BBX 8 12 0 0
BITMAP
00031100
003ED700
00048000
16400163
3FF203F8
3FFA03F8
3FEF43F8
3F8DD3F8
3F75F9F8
3F70BFF8
3F703FF8
3F7009F8
ENDCHAR
STARTCHAR ncaron
ENCODING 328
SWIDTH 562 0
DWIDTH 7 0
BBX 7 10 0 0
BITMAP
00302000
01DDA000
00291000
20352000
6DFFF600
6FA4CE10
6F306F30
6F306F30
6F306F30
6F306F30
ENDCHAR
STARTCHAR napostrophe
ENCODING 329
SWIDTH 694 0
DWIDTH 8 0
BBX 8 9 0 0
BITMAP
42000000
E8000000
74215410
00CDFFD1
00CF66F9
00CC00CC
00CC00CC
00CC00CC
00CC00CC
ENDCHAR
STARTCHAR Eng
ENCODING 330
SWIDTH 689 0
DWIDTH 8 0
BBX 8 12 0 -3
BITMAP
16400163
3FF203F8
3FFA03F8
3FEF43F8
3F8DD3F8
3F75F9F8
3F70BFF8
3F703FF8
3F7009F7
00045DF2
000BFE60
00045200
ENDCHAR
STARTCHAR eng
ENCODING 331
SWIDTH 562 0
DWIDTH 7 0
BBX 7 10 0 -3
BITMAP
20352000
6DFFF600
6FA4CE10
6F306F30
6F306F30
6F306F30
6F307F30
0035ED00
00CFE300
00541000
ENDCHAR
STARTCHAR Omacron
ENCODING 332
SWIDTH 777 0
DWIDTH 9 0
BBX 9 12 0 -1
BITMAP
0008AA2000
0007991000
0005761000
03DFFFF600
1DF735DF40
6F60002EC0
9F10000BE0
9F20000CE0
4FA0005FA0
0BFC8AFE20
008EFFB200
0000210000
ENDCHAR
STARTCHAR omacron
ENCODING 333
SWIDTH 579 0
DWIDTH 7 0
BBX 7 10 0 -1
BITMAP
00AAA000
00998000
00575000
0BFFFB00
6F829F60
AE000F90
9F102F80
4FC8DF30
06EFE500
00010000
ENDCHAR
STARTCHAR Obreve
ENCODING 334
SWIDTH 777 0
DWIDTH 9 0
BBX 9 13 0 -1
BITMAP
0001120000
0008BE0000
0001740000
0005761000
03DFFFF600
1DF735DF40
6F60002EC0
9F10000BE0
9F20000CE0
4FA0005FA0
0BFC8AFE20
008EFFB200
0000210000
ENDCHAR
STARTCHAR obreve
ENCODING 335
SWIDTH 579 0
DWIDTH 7 0
BBX 7 11 0 -1
BITMAP
00211000
00BBB000
00283000
00575000
0BFFFB00
6F829F60
AE000F90
9F102F80
4FC8DF30
06EFE500
00010000
ENDCHAR
STARTCHAR Ohungarumlaut
ENCODING 336
SWIDTH 777 0
DWIDTH 9 0
BBX 9 13 0 -1
BITMAP
0002B27000
000BDAF400
00061A4000
0005761000
03DFFFF600
1DF735DF40
6F60002EC0
9F10000BE0
9F20000CE0
4FA0005FA0
0BFC8AFE20
008EFFB200
0000210000
ENDCHAR
STARTCHAR ohungarumlaut
ENCODING 337
SWIDTH 579 0
DWIDTH 7 0
BBX 7 10 0 -1
BITMAP
003B2600
01DCCE20
00B8F300
0BFFFB00
6F829F60
AE000F90
9F102F80
4FC8DF30
06EFE500
00010000
ENDCHAR
STARTCHAR OE
ENCODING 338
SWIDTH 1125 0
DWIDTH 14 0
BBX 14 10 0 -1
BITMAP
00057614666661
03DFFFEDFFFFF2
1DF735DFF54440
6F60002EF11100
9F10000BFFFC00
9F20000CFAA800
4FA0005FF00000
0BFC8AFFFAAAA1
008EFFBCFFFFF2
00002100000000
ENDCHAR
STARTCHAR oe
ENCODING 339
SWIDTH 924 0
DWIDTH 11 0
BBX 11 8 0 -1
BITMAP
005750167400
0BFFFBDFFF80
6F829FF59F50
AE000FB4F800
9F102FDEA200
4FC8DFFF9E90
06EFE58FFD30
000100011000
ENDCHAR
STARTCHAR Racute
ENCODING 340
SWIDTH 651 0
DWIDTH 8 0
BBX 8 12 0 0
BITMAP
00002000
0002D800
0009A200
16665100
3FFFFF60
3F946DF2
3F7004F7
3F7005F6
3FA57EF2
3FFFFF50
3FA5AF30
3F702FA0
ENDCHAR
STARTCHAR racute
ENCODING 341
SWIDTH 414 0
DWIDTH 5 0
BBX 5 10 0 0
BITMAP
000200
004E60
00C810
201430
6CFFC0
6FB540
6F3000
6F3000
6F3000
6F3000
ENDCHAR
STARTCHAR Rcommaaccent
ENCODING 342
SWIDTH 651 0
DWIDTH 8 0
BBX 8 12 0 -3
BITMAP
16665100
3FFFFF60
3F946DF2
3F7004F7
3F7005F6
3FA57EF2
3FFFFF50
3FA5AF30
3F702FA0
00043000
000CA000
00056000
ENDCHAR
STARTCHAR rcommaaccent
ENCODING 343
SWIDTH 414 0
DWIDTH 5 0
BBX 5 10 0 -3
BITMAP
201430
6CFFC0
6FB540
6F3000
6F3000
6F3000
6F3000
150000
5F2000
0B0000
ENDCHAR
STARTCHAR Rcaron
ENCODING 344
SWIDTH 651 0
DWIDTH 8 0
BBX 8 12 0 0
BITMAP
00223000
006DE400
00075000
16665100
3FFFFF60
3F946DF2
3F7004F7
3F7005F6
3FA57EF2
3FFFFF50
3FA5AF30
3F702FA0
ENDCHAR
STARTCHAR rcaron
ENCODING 345
SWIDTH 414 0
DWIDTH 5 0
BBX 5 10 0 0
BITMAP
030300
0DDC00
019100
201430
6CFFC0
6FB540
6F3000
6F3000
6F3000
6F3000
ENDCHAR
STARTCHAR Sacute
ENCODING 346
SWIDTH 610 0
DWIDTH 7 0
BBX 7 12 0 0
BITMAP
00002000
0002D800
0009A200
01566640
2EFFFFA0
9F644430
AF310000
4FFFFC20
039AAFB0
00000BE0
3AAABFB0
4FFFFB20
ENDCHAR
STARTCHAR sacute
ENCODING 347
SWIDTH 523 0
DWIDTH 6 0
BBX 6 10 0 0
BITMAP
000020
0008E2
001D60
014442
3EFFF9
8F6553
6FDDC4
07BBEE
5999DE
9FFFE5
ENDCHAR
STARTCHAR Scircumflex
ENCODING 348
SWIDTH 610 0
DWIDTH 7 0
BBX 7 12 0 0
BITMAP
00020000
004E8000
0096B100
01566640
2EFFFFA0
9F644430
AF310000
4FFFFC20
039AAFB0
00000BE0
3AAABFB0
4FFFFB20
ENDCHAR
STARTCHAR scircumflex
ENCODING 349
SWIDTH 523 0
DWIDTH 6 0
BBX 6 10 0 0
BITMAP
000100
01BD20
03A760
014442
3EFFF9
8F6553
6FDDC4
07BBEE
5999DE
9FFFE5
ENDCHAR
STARTCHAR Scedilla
ENCODING 350
SWIDTH 610 0
DWIDTH 7 0
BBX 7 12 0 -3
BITMAP
01566640
2EFFFFA0
9F644430
AF310000
4FFFFC20
039AAFB0
00000BE0
3AAABFB0
4FFFFB20
000B5000
003AD000
003A5000
ENDCHAR
STARTCHAR scedilla
ENCODING 351
SWIDTH 523 0
DWIDTH 6 0
BBX 6 10 0 -3
BITMAP
014442
3EFFF9
8F6553
6FDDC4
07BBEE
5999DE
9FFFE5
004B10
007E50
008910
ENDCHAR
STARTCHAR Scaron
ENCODING 352
SWIDTH 610 0
DWIDTH 7 0
BBX 7 12 0 0
BITMAP
00303000
00ADE100
00092000
01566640
2EFFFFA0
9F644430
AF310000
4FFFFC20
039AAFB0
00000BE0
3AAABFB0
4FFFFB20
ENDCHAR
STARTCHAR scaron
ENCODING 353
SWIDTH 523 0
DWIDTH 6 0
BBX 6 10 0 0
BITMAP
003120
02ED90
003900
014442
3EFFF9
8F6553
6FDDC4
07BBEE
5999DE
9FFFE5
ENDCHAR
STARTCHAR Tcommaaccent
ENCODING 354
SWIDTH 578 0
DWIDTH 7 0
BBX 7 12 0 -3
BITMAP
56666650
DFFFFFC0
448F8430
006F5000
006F5000
006F5000
006F5000
006F5000
006F5000
00150000
004F3000
000B1000
ENDCHAR
STARTCHAR tcommaaccent
ENCODING 355
SWIDTH 437 0
DWIDTH 5 0
BBX 5 12 0 -3
BITMAP
1C6000
1F8000
4FA440
CFFFF0
5FA550
1F8000
0FA000
0AFA90
01AEF0
005100
01F600
009200
ENDCHAR
STARTCHAR Tcaron
ENCODING 356
SWIDTH 578 0
DWIDTH 7 0
BBX 7 12 0 0
BITMAP
00303000
00DDC000
00191000
56666650
DFFFFFC0
448F8430
006F5000
006F5000
006F5000
006F5000
006F5000
006F5000
ENDCHAR
STARTCHAR tcaron
ENCODING 357
SWIDTH 570 0
DWIDTH 7 0
BBX 7 9 0 0
BITMAP
1C600330
1F800AC0
4FA44480
CFFFF000
5FA55000
1F800000
0FA00000
0AFA9000
01AEF000
ENDCHAR
STARTCHAR Tbar
ENCODING 358
SWIDTH 578 0
DWIDTH 7 0
BBX 7 9 0 0
BITMAP
56666650
DFFFFFC0
448F8430
006F5000
029F8100
05FFF400
018F7100
006F5000
006F5000
ENDCHAR
STARTCHAR tbar
ENCODING 359
SWIDTH 437 0
DWIDTH 5 0
BBX 5 9 0 0
BITMAP
1C6000
1F8000
4FA440
CFFFF0
5FB550
CFFC00
6FD600
0AFA90
01AEF0
ENDCHAR
STARTCHAR Utilde
ENCODING 360
SWIDTH 673 0
DWIDTH 8 0
BBX 8 12 0 0
BITMAP
00131300
00CFBE00
00949600
26200262
5F5004F6
5F5004F6
5F5004F6
5F5004F6
5F6004F6
3FA009F4
0AFCCFB0
018EE910
ENDCHAR
STARTCHAR utilde
ENCODING 361
SWIDTH 562 0
DWIDTH 7 0
BBX 7 10 0 -1
BITMAP
00313100
07FCE400
2A86B510
7F207F20
7F207F20
7F207F20
6F308F20
2FC8FF20
06EFBA20
00010000
ENDCHAR
STARTCHAR Umacron
ENCODING 362
SWIDTH 673 0
DWIDTH 8 0
BBX 8 10 0 0
BITMAP
004AA500
26699662
5F5004F6
5F5004F6
5F5004F6
5F5004F6
5F6004F6
3FA009F4
0AFCCFB0
018EE910
ENDCHAR
STARTCHAR umacron
ENCODING 363
SWIDTH 562 0
DWIDTH 7 0
BBX 7 9 0 -1
BITMAP
01AA8000
25999410
7F207F20
7F207F20
7F207F20
6F308F20
2FC8FF20
06EFBA20
00010000
ENDCHAR
STARTCHAR Ubreve
ENCODING 364
SWIDTH 673 0
DWIDTH 8 0
BBX 8 11 0 0
BITMAP
00021100
003EC500
26267262
5F5004F6
5F5004F6
5F5004F6
5F5004F6
5F6004F6
3FA009F4
0AFCCFB0
018EE910
ENDCHAR
STARTCHAR ubreve
ENCODING 365
SWIDTH 562 0
DWIDTH 7 0
BBX 7 10 0 -1
BITMAP
00211000
00EB9000
24484410
7F207F20
7F207F20
7F207F20
6F308F20
2FC8FF20
06EFBA20
00010000
ENDCHAR
STARTCHAR Uring
ENCODING 366
SWIDTH 673 0
DWIDTH 8 0
BBX 8 12 0 0
BITMAP
00045000
001CC200
0009A000
26200262
5F5004F6
5F5004F6
5F5004F6
5F5004F6
5F6004F6
3FA009F4
0AFCCFB0
018EE910
ENDCHAR
STARTCHAR uring
ENCODING 367
SWIDTH 562 0
DWIDTH 7 0
BBX 7 10 0 -1
BITMAP
00261000
00B97000
246B5410
7F207F20
7F207F20
7F207F20
6F308F20
2FC8FF20
06EFBA20
00010000
ENDCHAR
STARTCHAR Uhungarumlaut
ENCODING 368
SWIDTH 673 0
DWIDTH 8 0
BBX 8 12 0 0
BITMAP
00095520
005F9EA0
00255900
26200262
5F5004F6
5F5004F6
5F5004F6
5F5004F6
5F6004F6
3FA009F4
0AFCCFB0
018EE910
ENDCHAR
STARTCHAR uhungarumlaut
ENCODING 369
SWIDTH 562 0
DWIDTH 7 0
BBX 7 10 0 -1
BITMAP
004A2500
02EBCD10
2572C610
7F207F20
7F207F20
7F207F20
6F308F20
2FC8FF20
06EFBA20
00010000
ENDCHAR
STARTCHAR Uogonek
ENCODING 370
SWIDTH 673 0
DWIDTH 8 0
BBX 8 12 0 -3
BITMAP
26200262
5F5004F6
5F5004F6
5F5004F6
5F5004F6
5F6004F6
2FA009F4
0BFCCFC0
019EEA10
002D2000
002ED100
00010000
ENDCHAR
STARTCHAR uogonek
ENCODING 371
SWIDTH 562 0
DWIDTH 7 0
BBX 7 10 0 -3
BITMAP
24102410
7F207F20
7F207F20
7F207F20
6F308F20
2FC8FF20
06EFBB20
00013C10
00004FC0
00000100
ENDCHAR
STARTCHAR Wcircumflex
ENCODING 372
SWIDTH 819 0
DWIDTH 10 0
BBX 10 13 0 -1
BITMAP
0000100000
0002DB1000
0005893000
2620650361
4F60EC08F2
4F60EC08F2
4F60EC08F2
4F60EC08F2
4F60EC08F2
4F60EC09F2
1FDAFF9ED0
05EFBCFD40
0001001000
ENDCHAR
STARTCHAR wcircumflex
ENCODING 373
SWIDTH 756 0
DWIDTH 9 0
BBX 9 11 0 -1
BITMAP
0000200000
0006F70000
000A5A0000
2411410420
7F24F51F80
7F24F51F80
7F24F51F80
7F24F51F80
4FABFCAF50
09FFAEF900
0011001000
ENDCHAR
STARTCHAR Ycircumflex
ENCODING 374
SWIDTH 620 0
DWIDTH 7 0
BBX 8 12 0 0
BITMAP
00020000
004E9000
0086B100
46000460
AF1009F1
AF1009F1
9F200AF0
4FB47FB0
09FFFD20
004FA100
002F8000
002F8000
ENDCHAR
STARTCHAR ycircumflex
ENCODING 375
SWIDTH 562 0
DWIDTH 7 0
BBX 7 13 0 -3
BITMAP
00020000
008F5000
01A59000
24102410
7F207F20
7F207F20
7F207F20
6F308F20
2FC8FF20
06EFEF10
0036EC00
00DFD300
00541000
ENDCHAR
STARTCHAR Ydieresis
ENCODING 376
SWIDTH 620 0
DWIDTH 7 0
BBX 8 11 0 0
BITMAP
00B3A400
00827300
46000460
AF1009F1
AF1009F1
9F200AF0
4FB47FB0
09FFFD20
004FA100
002F8000
002F8000
ENDCHAR
STARTCHAR Zacute
ENCODING 377
SWIDTH 586 0
DWIDTH 7 0
BBX 7 12 0 0
BITMAP
00002000
0004E700
000B9100
46666640
BFFFFF40
3448FB00
000CF300
005FB000
00DF3000
06FA0000
0DFCAA80
7FFFFFC0
ENDCHAR
STARTCHAR zacute
ENCODING 378
SWIDTH 481 0
DWIDTH 6 0
BBX 6 10 0 0
BITMAP
000120
001BC0
005C30
344442
BFFFE2
458F80
00BD10
05F600
0DF995
7FFFF8
ENDCHAR
STARTCHAR Zdotaccent
ENCODING 379
SWIDTH 586 0
DWIDTH 7 0
BBX 7 10 0 0
BITMAP
002D2000
467E7640
BFFFFF40
3448FB00
000CF300
005FB000
00DF3000
06FA0000
0DFCAA80
7FFFFFC0
ENDCHAR
STARTCHAR zdotaccent
ENCODING 380
SWIDTH 481 0
DWIDTH 6 0
BBX 6 8 0 0
BITMAP
00A700
349842
BFFFE2
458F80
00BD10
05F600
0DF995
7FFFF8
ENDCHAR
STARTCHAR Zcaron
ENCODING 381
SWIDTH 586 0
DWIDTH 7 0
BBX 7 12 0 0
BITMAP
00303000
00CDD000
00191000
46666640
BFFFFF40
3448FB00
000CF300
005FB000
00DF3000
06FA0000
0DFCAA80
7FFFFFC0
ENDCHAR
STARTCHAR zcaron
ENCODING 382
SWIDTH 481 0
DWIDTH 6 0
BBX 6 10 0 0
BITMAP
021300
07DE30
007500
344442
BFFFE2
458F80
00BD10
05F600
0DF995
7FFFF8
ENDCHAR
STARTCHAR AEacute
ENCODING 508
SWIDTH 988 0
DWIDTH 12 0
BBX 12 12 0 0
BITMAP
000000020000
0000005F5000
000000C81000
001566666663
03EFFFFFFFF7
1DE647F84442
4F7004F61100
5F5004FFFF20
5F9558FCAA10
5FFFFFF60000
5F8558FCAAA5
5F5004FFFFF7
ENDCHAR
STARTCHAR aeacute
ENCODING 509
SWIDTH 976 0
DWIDTH 12 0
BBX 12 11 0 -1
BITMAP
000000020000
0000008E2000
000001D60000
005740237620
0BFFFBEFFFE3
6F829FFC4ED1
AE000FF5AE30
9F102FFCF520
4FC8DFFFDAF3
06EFD6BBFFA1
000100001100
ENDCHAR
STARTCHAR Oslashacute
ENCODING 510
SWIDTH 777 0
DWIDTH 9 0
BBX 9 13 0 -1
BITMAP
0000020000
00003E7000
0000A91000
0005763620
03DFFFFD10
1DF73AFF40
6F603F8EC0
9F11DA0BF0
9F2AD10CE0
4FCF405FA0
0AFE8AFE20
0CDEFFB200
0001210000
ENDCHAR
STARTCHAR oslashacute
ENCODING 511
SWIDTH 579 0
DWIDTH 7 0
BBX 7 11 0 -1
BITMAP
00002000
0004E600
000C8100
00575530
0BFFFF20
6F87FF60
AE2E9F90
9FCC2F80
4FFADF30
5FEFE500
00010000
ENDCHAR
STARTCHAR dotlessj
ENCODING 567
SWIDTH 237 0
DWIDTH 3 0
BBX 5 10 -2 -3
BITMAP
002410
006F40
006F40
006F40
006F40
006F40
007F30
25DE00
CFE400
551000
ENDCHAR
STARTCHAR circumflex
ENCODING 710
SWIDTH 267 0
DWIDTH 3 0
BBX 4 3 0 6
BITMAP
0200
5F70
96B1
ENDCHAR
STARTCHAR caron
ENCODING 711
SWIDTH 267 0
DWIDTH 3 0
BBX 4 3 0 6
BITMAP
3030
BDD1
1920
ENDCHAR
STARTCHAR breve
ENCODING 728
SWIDTH 220 0
DWIDTH 3 0
BBX 3 3 0 6
BITMAP
2110
EB90
4820
ENDCHAR
STARTCHAR dotaccent
ENCODING 729
SWIDTH 125 0
DWIDTH 2 0
BBX 2 2 0 6
BITMAP
C5
72
ENDCHAR
STARTCHAR ring
ENCODING 730
SWIDTH 192 0
DWIDTH 2 0
BBX 3 3 0 6
BITMAP
3600
CA40
8B10
ENDCHAR
STARTCHAR ogonek
ENCODING 731
SWIDTH 212 0
DWIDTH 3 0
BBX 3 4 0 -3
BITMAP
1400
C500
CF40
0100
ENDCHAR
STARTCHAR tilde
ENCODING 732
SWIDTH 321 0
DWIDTH 4 0
BBX 4 3 0 6
BITMAP
1313
EFBC
A495
ENDCHAR
STARTCHAR hungarumlaut
ENCODING 733
SWIDTH 384 0
DWIDTH 5 0
BBX 5 3 0 6
BITMAP
1B2700
ADAF50
529500
ENDCHAR
STARTCHAR uni0312
ENCODING 786
SWIDTH 192 0
DWIDTH 2 0
BBX 2 3 0 6
BITMAP
45
9C
46
ENDCHAR
STARTCHAR uni0315
ENCODING 789
SWIDTH 132 0
DWIDTH 2 0
BBX 2 3 0 6
BITMAP
42
E8
74
ENDCHAR
STARTCHAR uni0326
ENCODING 806
SWIDTH 193 0
DWIDTH 2 0
BBX 2 3 0 -3
BITMAP
24
8E
1A
ENDCHAR
STARTCHAR pi
ENCODING 960
SWIDTH 555 0
DWIDTH 7 0
BBX 7 7 0 0
BITMAP
34444420
CFFFFF70
4DD6FA20
0CC2F700
0CC2F700
0CC2F700
0CC2F700
ENDCHAR
STARTCHAR Wgrave
ENCODING 7808
SWIDTH 819 0
DWIDTH 10 0
BBX 10 13 0 -1
BITMAP
0002000000
002E900000
0005D20000
2620650361
4F60EC08F2
4F60EC08F2
4F60EC08F2
4F60EC08F2
4F60EC08F2
4F60EC09F2
1FDAFF9ED0
05EFBCFD40
0001001000
ENDCHAR
STARTCHAR wgrave
ENCODING 7809
SWIDTH 756 0
DWIDTH 9 0
BBX 9 11 0 -1
BITMAP
0002000000
008E300000
002A900000
2411410420
7F24F51F80
7F24F51F80
7F24F51F80
7F24F51F80
4FABFCAF50
09FFAEF900
0011001000
ENDCHAR
STARTCHAR Wacute
ENCODING 7810
SWIDTH 819 0
DWIDTH 10 0
BBX 10 13 0 -1
BITMAP
0000012000
00001BC000
00005C3000
2620650361
4F60EC08F2
4F60EC08F2
4F60EC08F2
4F60EC08F2
4F60EC08F2
4F60EC09F2
1FDAFF9ED0
05EFBCFD40
0001001000
ENDCHAR
STARTCHAR wacute
ENCODING 7811
SWIDTH 756 0
DWIDTH 9 0
BBX 9 11 0 -1
BITMAP
0000020000
00002D9000
00009A2000
2411410420
7F24F51F80
7F24F51F80
7F24F51F80
7F24F51F80
4FABFCAF50
09FFAEF900
0011001000
ENDCHAR
STARTCHAR Wdieresis
ENCODING 7812
SWIDTH 819 0
DWIDTH 10 0
BBX 10 12 0 -1
BITMAP
0009677000
0007455000
2620650361
4F60EC08F2
4F60EC08F2
4F60EC08F2
4F60EC08F2
4F60EC08F2
4F60EC09F2
1FDAFF9ED0
05EFBCFD40
0001001000
ENDCHAR
STARTCHAR wdieresis
ENCODING 7813
SWIDTH 756 0
DWIDTH 9 0
BBX 9 9 0 -1
BITMAP
002C2B3000
242A5A2420
7F24F51F80
7F24F51F80
7F24F51F80
7F24F51F80
4FABFCAF50
09FFAEF900
0011001000
ENDCHAR
STARTCHAR Ygrave
ENCODING 7922
SWIDTH 620 0
DWIDTH 7 0
BBX 8 12 0 0
BITMAP
00200000
07E30000
01AA0000
46000460
AF1009F1
AF1009F1
9F200AF0
4FB47FB0
09FFFD20
004FA100
002F8000
002F8000
ENDCHAR
STARTCHAR ygrave
ENCODING 7923
SWIDTH 562 0
DWIDTH 7 0
BBX 7 13 0 -3
BITMAP
02000000
0DB10000
04D40000
24102410
7F207F20
7F207F20
7F207F20
6F308F20
2FC8FF20
06EFEF10
0036EC00
00DFD300
00541000
ENDCHAR
STARTCHAR endash
ENCODING 8211
SWIDTH 418 0
DWIDTH 5 0
BBX 5 3 0 3
BITMAP
011100
4FFF50
288830
ENDCHAR
STARTCHAR emdash
ENCODING 8212
SWIDTH 719 0
DWIDTH 9 0
BBX 8 3 0 3
BITMAP
01111111
4FFFFFFE
28888888
ENDCHAR
STARTCHAR quoteleft
ENCODING 8216
SWIDTH 246 0
DWIDTH 3 0
BBX 3 4 0 5
BITMAP
0300
3D00
7F60
2A20
ENDCHAR
STARTCHAR quoteright
ENCODING 8217
SWIDTH 245 0
DWIDTH 3 0
BBX 3 4 0 5
BITMAP
1500
7F60
2E40
0700
ENDCHAR
STARTCHAR quotesinglbase
ENCODING 8218
SWIDTH 264 0
DWIDTH 3 0
BBX 3 4 0 -2
BITMAP
1820
5F80
0C50
0500
ENDCHAR
STARTCHAR quotedblleft
ENCODING 8220
SWIDTH 445 0
DWIDTH 5 0
BBX 5 4 0 5
BITMAP
030210
3D0C40
7F7FC0
2A2860
ENDCHAR
STARTCHAR quotedblright
ENCODING 8221
SWIDTH 444 0
DWIDTH 5 0
BBX 5 4 0 5
BITMAP
150420
7F7FC0
2E4AA0
070530
ENDCHAR
STARTCHAR quotedblbase
ENCODING 8222
SWIDTH 463 0
DWIDTH 6 0
BBX 5 4 0 -2
BITMAP
182650
5F8EE0
0C57B0
050220
ENDCHAR
STARTCHAR dagger
ENCODING 8224
SWIDTH 434 0
DWIDTH 5 0
BBX 5 12 0 -2
BITMAP
029400
04F700
49FA50
9FFFC0
15F820
04F700
04F700
04F700
04F700
04F700
04F700
013100
ENDCHAR
STARTCHAR daggerdbl
ENCODING 8225
SWIDTH 452 0
DWIDTH 5 0
BBX 5 12 0 -2
BITMAP
019500
02F800
38FB60
8FFFE0
14F920
02F800
02F800
5AFD90
7EFFD0
02F800
02F800
003200
ENDCHAR
STARTCHAR bullet
ENCODING 8226
SWIDTH 354 0
DWIDTH 4 0
BBX 4 3 0 3
BITMAP
0570
1FF5
0AC2
ENDCHAR
STARTCHAR ellipsis
ENCODING 8230
SWIDTH 789 0
DWIDTH 9 0
BBX 9 3 0 -1
BITMAP
1820830750
5F83FA1FC0
0510520430
ENDCHAR
STARTCHAR perthousand
ENCODING 8240
SWIDTH 998 0
DWIDTH 12 0
BBX 12 10 0 -1
BITMAP
067102600000
5EC90A900000
894C3E200000
6DAAB8000000
08A7E1100100
000D9EF56FE2
006D8A6BB6A7
01E57A7BB7A7
08C02EF55FE2
000000100100
ENDCHAR
STARTCHAR guilsinglleft
ENCODING 8249
SWIDTH 403 0
DWIDTH 5 0
BBX 5 6 0 0
BITMAP
005C10
04FB10
4FB100
4EC200
03ED20
003900
ENDCHAR
STARTCHAR guilsinglright
ENCODING 8250
SWIDTH 402 0
DWIDTH 5 0
BBX 5 6 0 0
BITMAP
3D3000
1DE300
01DE20
03ED20
3ED200
1A1000
ENDCHAR
STARTCHAR fraction
ENCODING 8260
SWIDTH 477 0
DWIDTH 6 0
BBX 6 9 0 0
BITMAP
000044
0001E5
0008B0
002E30
009A00
03E200
0B8000
4E1000
C70000
ENDCHAR
STARTCHAR Euro
ENCODING 8364
SWIDTH 806 0
DWIDTH 10 0
BBX 9 10 0 -1
BITMAP
0000167500
0006FFFFC0
004FD53780
0DFFED0000
18FD870000
5DFED70000
59CFD30010
002EFA8CB0
0002BFFF80
0000012100
ENDCHAR
STARTCHAR trademark
ENCODING 8482
SWIDTH 606 0
DWIDTH 7 0
BBX 7 4 0 5
BITMAP
26626610
18588870
06386680
04254450
ENDCHAR
STARTCHAR partialdiff
ENCODING 8706
SWIDTH 609 0
DWIDTH 7 0
BBX 7 11 0 -1
BITMAP
00121000
001ED000
0006F700
0036EE00
09FFFF50
4FA27F90
8F200DC0
7F301EA0
2ED8CF50
04DFE700
00010000
ENDCHAR
STARTCHAR product
ENCODING 8719
SWIDTH 632 0
DWIDTH 8 0
BBX 8 9 0 0
BITMAP
36666661
8FFFFFF3
29F6BF51
07F39F10
07F39F10
07F39F10
07F39F10
07F39F10
07F39F10
ENDCHAR
STARTCHAR minus
ENCODING 8722
SWIDTH 543 0
DWIDTH 7 0
BBX 6 3 0 3
BITMAP
011110
3FFFFB
288886
ENDCHAR
STARTCHAR infinity
ENCODING 8734
SWIDTH 771 0
DWIDTH 9 0
BBX 9 6 0 1
BITMAP
0398169400
1EFFEFFF40
6F37F82EA0
6F43F91EA0
2EFFFFFF50
039927A500
ENDCHAR
STARTCHAR approxequal
ENCODING 8776
SWIDTH 476 0
DWIDTH 6 0
BBX 5 6 0 1
BITMAP
077280
3FEEE0
191740
1DD7E0
3F8FC0
030100
ENDCHAR
STARTCHAR notequal
ENCODING 8800
SWIDTH 512 0
DWIDTH 6 0
BBX 6 8 0 0
BITMAP
0005C1
144CC2
6FFFF8
25BE53
5DEED7
5DFCB6
0AC000
074000
ENDCHAR
STARTCHAR fi
ENCODING 64257
SWIDTH 650 0
DWIDTH 8 0
BBX 8 10 0 0
BITMAP
00156000
03EFF8F4
0BE537F4
3EB44451
BFFFFFF3
3FB559F3
0EA006F3
0EA006F3
0EA006F3
0EA006F3
ENDCHAR
STARTCHAR fl
ENCODING 64258
SWIDTH 631 0
DWIDTH 8 0
BBX 7 10 0 0
BITMAP
00156660
03EFFFF0
0BE53BF0
3EB43AF0
BFFF9AF0
3FB53AF0
0EA00AF0
0EA00AF0
0EA00AF0
0EA00AF0
ENDCHAR
STARTCHAR .notdef
ENCODING -1
SWIDTH 279 0
DWIDTH 3 0
BBX 1 1 0 0
BITMAP
00
ENDCHAR
STARTCHAR .null
ENCODING -1
SWIDTH 0 0
DWIDTH 0 0
BBX 1 1 0 0
BITMAP
00
ENDCHAR
STARTCHAR nonmarkingreturn
ENCODING -1
SWIDTH 279 0
DWIDTH 3 0
BBX 1 1 0 0
BITMAP
00
ENDCHAR
ENDFONT
